<?xml version="1.0" encoding="utf-8"?>
<!-- Generator: Adobe Illustrator 27.5.0, SVG Export Plug-In . SVG Version: 6.00 Build 0)  -->
<svg version="1.1" xmlns="http://www.w3.org/2000/svg" xmlns:xlink="http://www.w3.org/1999/xlink" x="0px" y="0px"
	 viewBox="0 0 500 500" style="enable-background:new 0 0 500 500;" xml:space="preserve">
<g id="Floor">
	<path id="Floor_2_" style="fill:#FAFAFA;" d="M407.332,398.844c-87.418,50.216-229.151,50.218-316.568,0.001
		c-87.418-50.218-87.418-131.635,0-181.851c87.418-50.217,229.151-50.217,316.569-0.001
		C494.751,267.21,494.751,348.628,407.332,398.844z"/>
</g>
<g id="Shadows">
	<path id="Shadow_7_" style="fill:#E6E6E6;" d="M274.579,307.922c-18.369-10.605-48.15-10.605-66.518,0
		c-15.57,8.99-17.936,22.712-7.109,33.144c-0.625,0.179-1.223,0.408-1.75,0.712l-58.029,33.503c-2.464,1.422-2.464,3.728,0,5.151
		l3.632,2.097c2.464,1.422,6.39,1.313,8.77-0.245l54.044-35.371c0.235-0.154,0.43-0.321,0.621-0.489
		c18.382,10.503,48.028,10.473,66.338-0.099C292.947,335.72,292.947,318.526,274.579,307.922z"/>
	<path id="Shadow_6_" style="fill:#E6E6E6;" d="M403.697,269.348l-73.92,42.776c-1.641,0.948-4.303,0.948-5.944,0l-128.592-74.25
		c-1.642-0.947-1.642-2.484,0-3.432l73.921-42.776c1.642-0.948,4.303-0.948,5.945,0l128.592,74.251
		C405.339,266.864,405.339,268.4,403.697,269.348z"/>
	<path id="Shadow_5_" style="fill:#E6E6E6;" d="M74.532,350.239l-19.773-11.417c-2.391-1.381-2.391-3.619,0-5l137.573-79.428
		c2.391-1.381,6.269-1.381,8.66,0l19.774,11.416c2.391,1.381,2.391,3.619,0,5L83.192,350.239
		C80.8,351.62,76.923,351.62,74.532,350.239z"/>
	<path id="Shadow_4_" style="fill:#E6E6E6;" d="M378.065,367.1c14.266,7.797,37.395,7.797,51.661,0
		c14.266-7.794,14.266-20.434,0-28.231c-14.266-7.795-37.395-7.795-51.661,0C363.799,346.666,363.799,359.306,378.065,367.1z"/>
</g>
<g id="Plants">
	<g id="Plants_1_">
		<g id="XMLID_14872_">
			<g id="XMLID_14875_">
				<path id="XMLID_14877_" style="fill:#27DEBF;" d="M419.888,333.157c0.356-4.426,4.294-13.337,9.35-18.714
					c5.055-5.378,12.614-8.999,17.603-6.832c4.646,2.018,3.625,8.245-2.506,11.932c-6.131,3.687-15.263,8.204-18.39,15.179
					l-6.057,8.379V333.157z"/>
				<path id="XMLID_14876_" style="opacity:0.1;" d="M419.888,333.157c0.356-4.426,4.294-13.337,9.35-18.714
					c5.055-5.378,12.614-8.999,17.603-6.832c4.646,2.018,3.625,8.245-2.506,11.932c-6.131,3.687-15.263,8.204-18.39,15.179
					l-6.057,8.379V333.157z"/>
			</g>
			<g id="XMLID_14873_">
				<path id="XMLID_14874_" style="fill:#FFFFFF;" d="M419.074,339.188c0.142,0,0.272-0.094,0.312-0.237
					c4.179-14.871,17.389-26.169,24.923-28.294c0.172-0.049,0.273-0.228,0.224-0.4c-0.048-0.172-0.223-0.275-0.4-0.224
					c-7.677,2.165-21.129,13.647-25.371,28.743c-0.049,0.172,0.052,0.351,0.224,0.4
					C419.016,339.184,419.045,339.188,419.074,339.188z"/>
			</g>
		</g>
		<g id="XMLID_14867_">
			<g id="XMLID_14870_">
				<path id="XMLID_14871_" style="fill:#27DEBF;" d="M420.55,349.04c0.911-2.431,4.28-6.292,9.468-9.289
					c5.739-3.315,12.759-4.486,14.58-7.279c2.188-3.355-0.503-6.907-6.144-6.663c-5.641,0.243-16.074,7.074-18.566,18.421
					L420.55,349.04z"/>
			</g>
			<g id="XMLID_14868_">
				<path id="XMLID_14869_" style="fill:#FFFFFF;" d="M419.679,346.343c0.124,0,0.241-0.071,0.296-0.191
					c5.674-12.571,15.915-16.32,20.537-16.546c0.179-0.009,0.317-0.161,0.308-0.34c-0.009-0.179-0.154-0.317-0.34-0.308
					c-5.111,0.25-15.305,4.096-21.097,16.928c-0.074,0.163-0.001,0.356,0.162,0.429
					C419.589,346.333,419.634,346.343,419.679,346.343z"/>
			</g>
		</g>
	</g>
	<g id="Plants_3_">
		<g id="XMLID_14861_">
			<g id="XMLID_14864_">
				<path id="XMLID_14866_" style="fill:#27DEBF;" d="M56.388,308.471c0,0-1.045-9.193-5.618-16.327s-10.856-11.587-16.718-12.051
					c-5.862-0.464-10.597,4.93-4.325,8.634c6.272,3.704,17.417,7.484,22.545,21.337L56.388,308.471z"/>
				<path id="XMLID_14865_" style="opacity:0.1;" d="M56.388,308.471c0,0-1.045-9.193-5.618-16.327s-10.856-11.587-16.718-12.051
					c-5.862-0.464-10.597,4.93-4.325,8.634c6.272,3.704,17.417,7.484,22.545,21.337L56.388,308.471z"/>
			</g>
			<g id="XMLID_14862_">
				<path id="XMLID_14863_" style="fill:#FFFFFF;" d="M54.669,306.083c0.021-0.004,0.042-0.01,0.062-0.018
					c0.16-0.065,0.238-0.247,0.172-0.408c-6.186-15.236-17.964-21.598-23.327-22.833c-0.168-0.04-0.336,0.066-0.375,0.235
					c-0.039,0.169,0.066,0.337,0.235,0.375c5.254,1.21,16.798,7.461,22.888,22.458C54.38,306.033,54.527,306.109,54.669,306.083z"/>
			</g>
		</g>
		<g id="XMLID_14809_">
			<g id="XMLID_14856_">
				<g id="XMLID_14859_">
					<path id="XMLID_14860_" style="fill:#27DEBF;" d="M26.555,306.024c0.564,1.272,1.953,1.934,3.246,2.455
						c1.285,0.516,2.694,1.079,3.392,2.282c1.407,2.429-0.903,5.845,0.607,8.211c0.634,0.992,1.812,1.514,2.971,1.722
						c0.963,0.18,1.943,0.179,2.919,0.261c0.47-0.01,0.935-0.044,1.388-0.108c1.34-0.195,2.793-0.257,4.02,0.428
						c1.931,1.085,2.524,3.524,3.697,5.404c1.406,2.251,3.892,3.725,6.504,4.08c0.868,0.115,2.482,0.271,3.366-0.222
						c0.069-0.038,0.127-0.074,0.183-0.116c0.006-0.001,0.011-0.008,0.016-0.016c0.121-0.137,0.274-0.311,0.34-0.406
						c0.016-0.016,0.025-0.036,0.034-0.057c0.342-1.26-0.217-2.571-0.239-3.872c-0.002-0.082-0.004-0.159,0.001-0.236
						c0.054-1.513,0.097-3.017,0.132-4.526c0.071-2.777,0.102-5.559,0.083-8.338c-0.019-1.805,0.198-3.781-0.565-5.481
						c-0.846-1.87-2.948-1.911-3.743-3.746c-0.318-0.731-0.488-1.515-0.795-2.255c-0.92-2.169-3.147-3.728-5.506-3.843
						c-3.671-0.187-6.965,2.786-10.632,2.516c-0.95-0.074-1.875-0.363-2.811-0.535c-2.974-0.557-6.41,0.29-8.082,2.806
						C26.382,303.483,26.044,304.87,26.555,306.024z"/>
				</g>
			</g>
			<g id="XMLID_14854_">
				<path id="XMLID_14855_" style="fill:#FFFFFF;" d="M59.538,324.16c0.008-0.002,0.017-0.004,0.025-0.006
					c0.167-0.044,0.266-0.216,0.221-0.383c-5.072-19.031-25.123-21.781-29.814-21.442c-0.17,0.014-0.302,0.162-0.29,0.335
					c0.012,0.172,0.162,0.302,0.335,0.29c4.589-0.331,24.202,2.359,29.165,20.979C59.222,324.092,59.379,324.189,59.538,324.16z"/>
			</g>
			<g id="XMLID_14852_">
				<path id="XMLID_14853_" style="fill:#FFFFFF;" d="M37.26,314.517c0.061-0.011,0.119-0.04,0.166-0.087
					c0.05-0.051,5.164-5.092,13.645-3.844c0.171,0.023,0.331-0.093,0.356-0.264s-0.093-0.331-0.264-0.356
					c-8.809-1.295-14.129,3.97-14.182,4.023c-0.122,0.123-0.12,0.321,0.002,0.443C37.058,314.506,37.162,314.535,37.26,314.517z"/>
			</g>
		</g>
	</g>
</g>
<g id="Device_1_">
	<g id="Device">
		<g id="XMLID_311_">
			<path id="XMLID_312_" style="fill:#37474F;" d="M400.953,255.496l-71.426,41.332c-1.586,0.916-4.158,0.916-5.744,0
				l-124.253-71.744c-1.586-0.915-1.586-2.4,0-3.316l71.426-41.333c1.586-0.916,4.158-0.916,5.744,0l124.252,71.745
				C402.539,253.095,402.539,254.58,400.953,255.496z"/>
		</g>
		<g id="XMLID_309_">
			<path id="XMLID_310_" style="fill:#263238;" d="M362.79,274.452c-2.203,1.272-5.775,1.272-7.978,0
				c-2.203-1.272-2.203-3.334,0-4.606c2.203-1.272,5.775-1.272,7.978,0C364.993,271.119,364.993,273.181,362.79,274.452z"/>
		</g>
		<g id="XMLID_307_">
			<path id="XMLID_308_" style="fill:#455A64;" d="M329.527,296.828l71.426-41.332c1.418-0.819,1.565-2.091,0.446-3.007
				c1.372,1.042,2.426,3.01,2.426,4.665v2.7c0,1.832-1.286,4.059-2.872,4.974l-71.426,41.332c-0.793,0.458-1.832,0.687-2.872,0.687
				v-9.333C327.695,297.515,328.734,297.286,329.527,296.828z"/>
		</g>
		<g id="XMLID_305_">
			<path id="XMLID_306_" style="fill:#263238;" d="M199.531,234.416c-1.586-0.915-2.872-3.143-2.872-4.974v-2.701
				c0-1.656,1.055-3.625,2.428-4.666c-1.122,0.915-0.977,2.189,0.443,3.009l124.253,71.744c0.793,0.458,1.833,0.687,2.872,0.687
				v9.333c-1.039,0-2.079-0.229-2.872-0.687L199.531,234.416z"/>
		</g>
		<g id="XMLID_303_">
			<path id="XMLID_304_" style="fill:#FAFAFA;" d="M317.599,288.168l67.368-38.993c0.952-0.55,0.952-1.441,0-1.99l-99.575-57.591
				c-0.952-0.55-2.495-0.55-3.446-0.001l-67.392,38.987c-0.951,0.55-0.951,1.44,0,1.99l99.599,57.598
				C315.105,288.718,316.648,288.718,317.599,288.168z"/>
		</g>
		<g id="XMLID_331_">
			<g id="XMLID_126_">
				<path id="XMLID_326_" style="fill:#EBEBEB;" d="M224.964,230.342l32.215,18.612c1.196,0.69,3.134,0.69,4.33,0l56.6-32.677
					c1.196-0.69,1.196-1.81,0-2.5l-32.215-18.613c-1.196-0.69-3.134-0.69-4.33,0l-56.601,32.678
					C223.768,228.532,223.768,229.651,224.964,230.342z"/>
			</g>
			<g id="XMLID_127_">
				<g id="XMLID_332_">
					<path id="XMLID_350_" style="fill:#FAFAFA;" d="M248.628,221.445l8.266,1.618c0.521,0.102,1.097,0.049,1.538-0.141l6.996-3.014
						c1.111-0.479,2.691-0.014,2.673,0.786l-0.111,5.039c-0.007,0.318,0.257,0.617,0.707,0.801l7.127,2.91
						c1.132,0.462,0.855,1.473-0.469,1.711l-8.336,1.496c-0.525,0.094-0.937,0.332-1.1,0.636l-2.591,4.813
						c-0.411,0.764-2.163,0.924-2.963,0.271l-5.04-4.115c-0.318-0.26-0.837-0.412-1.387-0.408l-8.728,0.065
						c-1.387,0.01-2.191-0.902-1.362-1.543l5.22-4.039c0.329-0.255,0.42-0.587,0.244-0.888l-2.803-4.773
						C246.061,221.912,247.315,221.188,248.628,221.445z"/>
				</g>
				<g id="XMLID_128_">
					<path id="XMLID_187_" style="fill:#FAFAFA;" d="M267.014,210.907l17.713-10.226c0.717-0.414,1.756-0.486,2.319-0.16
						c0.564,0.326,0.439,0.926-0.279,1.34l-17.712,10.226c-0.718,0.414-1.756,0.486-2.32,0.16
						C266.172,211.921,266.296,211.321,267.014,210.907z"/>
					<path id="XMLID_186_" style="fill:#FAFAFA;" d="M271.477,213.486l17.713-10.226c0.717-0.414,1.756-0.486,2.319-0.16
						c0.564,0.326,0.439,0.926-0.279,1.34l-17.712,10.226c-0.717,0.414-1.756,0.486-2.32,0.16S270.759,213.9,271.477,213.486z"/>
					<path id="XMLID_185_" style="fill:#FAFAFA;" d="M275.94,216.065l17.713-10.226c0.717-0.414,1.756-0.486,2.319-0.16
						c0.564,0.326,0.439,0.926-0.279,1.34l-17.712,10.226c-0.717,0.414-1.756,0.486-2.32,0.16
						C275.098,217.08,275.222,216.48,275.94,216.065z"/>
					<path id="XMLID_184_" style="fill:#FAFAFA;" d="M280.403,218.645l17.713-10.226c0.717-0.414,1.756-0.486,2.319-0.16
						c0.564,0.326,0.439,0.926-0.279,1.34l-17.712,10.226c-0.717,0.414-1.756,0.486-2.32,0.16
						C279.561,219.659,279.685,219.059,280.403,218.645z"/>
					<path id="XMLID_142_" style="fill:#FAFAFA;" d="M284.866,221.224l17.713-10.226c0.717-0.414,1.756-0.486,2.319-0.16
						s0.439,0.926-0.279,1.34l-17.712,10.226c-0.717,0.414-1.756,0.486-2.32,0.16C284.024,222.238,284.148,221.638,284.866,221.224z
						"/>
					<path id="XMLID_137_" style="fill:#FAFAFA;" d="M289.329,223.803l17.713-10.226c0.717-0.414,1.756-0.486,2.319-0.16
						c0.564,0.326,0.439,0.926-0.279,1.34l-17.712,10.226c-0.717,0.414-1.756,0.486-2.32,0.16
						C288.487,224.817,288.611,224.217,289.329,223.803z"/>
				</g>
			</g>
			<path id="XMLID_327_" style="fill:#E0E0E0;" d="M264.706,253.3l1.468,0.847c0.717,0.414,1.881,0.414,2.598,0l33.957-19.608
				c0.717-0.414,0.717-1.086,0-1.5l-1.467-0.847c-0.717-0.414-1.881-0.414-2.598,0L264.706,251.8
				C263.988,252.214,263.988,252.886,264.706,253.3z"/>
			<path id="XMLID_328_" style="fill:#E0E0E0;" d="M325.638,218.121l1.464,0.845c0.717,0.414,0.717,1.086,0,1.5l-13.651,7.881
				c-0.717,0.414-1.881,0.414-2.598,0l-1.465-0.846c-0.717-0.414-0.717-1.086,0-1.5l13.652-7.881
				C323.757,217.707,324.92,217.707,325.638,218.121z"/>
		</g>
		<g id="XMLID_130_">
			<g id="XMLID_195_">
				<path id="XMLID_196_" style="fill:#EBEBEB;" d="M273.741,258.491l32.215,18.612c1.196,0.69,3.134,0.69,4.33,0l56.6-32.677
					c1.196-0.69,1.196-1.81,0-2.5l-32.215-18.613c-1.196-0.69-3.134-0.69-4.33,0l-56.601,32.678
					C272.545,256.681,272.545,257.801,273.741,258.491z"/>
			</g>
			<g id="XMLID_133_">
				<g id="XMLID_192_">
					<path id="XMLID_193_" style="fill:#FAFAFA;" d="M297.405,249.595l8.266,1.618c0.521,0.102,1.097,0.049,1.538-0.141l6.996-3.014
						c1.111-0.479,2.691-0.014,2.673,0.786l-0.111,5.039c-0.007,0.318,0.257,0.617,0.707,0.801l7.127,2.91
						c1.132,0.462,0.855,1.473-0.469,1.711l-8.336,1.496c-0.525,0.095-0.937,0.332-1.1,0.636l-2.591,4.813
						c-0.411,0.764-2.163,0.924-2.963,0.271l-5.04-4.115c-0.318-0.26-0.837-0.412-1.387-0.408l-8.728,0.065
						c-1.387,0.01-2.191-0.902-1.362-1.543l5.22-4.039c0.329-0.255,0.42-0.587,0.244-0.888l-2.803-4.773
						C294.838,250.061,296.091,249.338,297.405,249.595z"/>
				</g>
				<g id="XMLID_134_">
					<path id="XMLID_191_" style="fill:#FAFAFA;" d="M315.791,239.056l17.713-10.226c0.717-0.414,1.756-0.486,2.319-0.16
						c0.564,0.326,0.439,0.926-0.279,1.34l-17.712,10.226c-0.717,0.414-1.756,0.486-2.32,0.16
						C314.949,240.07,315.073,239.471,315.791,239.056z"/>
					<path id="XMLID_190_" style="fill:#FAFAFA;" d="M320.254,241.636l17.713-10.226c0.717-0.414,1.756-0.486,2.319-0.16
						c0.564,0.326,0.439,0.926-0.279,1.34l-17.712,10.226c-0.717,0.414-1.756,0.486-2.32,0.16
						C319.411,242.65,319.536,242.05,320.254,241.636z"/>
					<path id="XMLID_189_" style="fill:#FAFAFA;" d="M324.717,244.215l17.713-10.226c0.717-0.414,1.756-0.486,2.32-0.16
						c0.563,0.326,0.439,0.926-0.279,1.34l-17.712,10.226c-0.717,0.414-1.756,0.486-2.32,0.16
						C323.875,245.229,323.999,244.629,324.717,244.215z"/>
					<path id="XMLID_188_" style="fill:#FAFAFA;" d="M329.18,246.794l17.713-10.226c0.717-0.414,1.756-0.486,2.319-0.16
						c0.564,0.326,0.439,0.926-0.279,1.34l-17.712,10.226c-0.717,0.414-1.756,0.486-2.32,0.16
						C328.337,247.808,328.462,247.208,329.18,246.794z"/>
					<path id="XMLID_136_" style="fill:#FAFAFA;" d="M333.642,249.373l17.713-10.226c0.717-0.414,1.756-0.486,2.32-0.16
						s0.439,0.926-0.279,1.34l-17.712,10.226c-0.717,0.414-1.756,0.486-2.32,0.16C332.8,250.388,332.925,249.788,333.642,249.373z"
						/>
					<path id="XMLID_135_" style="fill:#FAFAFA;" d="M338.105,251.953l17.713-10.226c0.717-0.414,1.756-0.486,2.319-0.16
						c0.564,0.326,0.439,0.926-0.279,1.34l-17.712,10.226c-0.717,0.414-1.756,0.486-2.32,0.16
						C337.263,252.967,337.388,252.367,338.105,251.953z"/>
				</g>
			</g>
			<path id="XMLID_132_" style="fill:#E0E0E0;" d="M313.483,281.449l1.468,0.847c0.717,0.414,1.881,0.414,2.598,0l33.957-19.608
				c0.717-0.414,0.717-1.086,0-1.5l-1.467-0.847c-0.717-0.414-1.881-0.414-2.598,0l-33.959,19.609
				C312.765,280.364,312.765,281.035,313.483,281.449z"/>
			<path id="XMLID_131_" style="fill:#E0E0E0;" d="M374.414,246.271l1.464,0.846c0.717,0.414,0.717,1.086,0,1.5l-13.651,7.881
				c-0.717,0.414-1.881,0.414-2.598,0l-1.465-0.846c-0.717-0.414-0.717-1.086,0-1.5l13.652-7.881
				C372.534,245.856,373.697,245.857,374.414,246.271z"/>
		</g>
		<g id="XMLID_239_">
			<path id="XMLID_240_" style="fill:#263238;" d="M241.283,204.192c-0.486,0.281-1.274,0.281-1.76,0
				c-0.486-0.28-0.486-0.736,0-1.016c0.486-0.281,1.274-0.281,1.76,0C241.77,203.456,241.77,203.912,241.283,204.192z"/>
		</g>
		<g id="XMLID_232_">
			<g id="XMLID_236_">
				<path id="XMLID_238_" style="fill:#263238;" d="M238.47,212.176c-0.972,0.561-2.549,0.561-3.521,0
					c-0.972-0.562-0.972-1.472,0-2.033c0.972-0.561,2.549-0.561,3.521,0C239.442,210.704,239.442,211.614,238.47,212.176z"/>
			</g>
			<g id="XMLID_233_">
				<path id="XMLID_234_" style="fill:#263238;" d="M240.952,208.638c-0.648-0.374-0.614-1.001,0.077-1.4l11.582-6.687
					c0.691-0.399,1.777-0.419,2.425-0.045c0.648,0.375,0.614,1.001-0.077,1.4l-11.583,6.687
					C242.686,208.992,241.6,209.012,240.952,208.638z"/>
			</g>
		</g>
	</g>
</g>
<g id="Newspaper">
	<g id="News_Paper">
		<path id="XMLID_83_" style="fill:#E0E0E0;" d="M212.913,110.808v2.35l-8.12,4.69h-0.01l-12.18,7.04l-107.51,62.07
			c-0.6,0.35-1.13,0.93-1.53,1.61c-0.4,0.68-0.64,1.45-0.64,2.14v142.9c0,7.77-5.46,10.92-12.18,7.03
			c-6.73-3.88-12.19-13.33-12.19-21.1v-142.9c0-0.69,0.24-1.46,0.64-2.14c0.4-0.68,0.93-1.27,1.53-1.61l119.69-69.11l11.57-6.68
			c0.39,0.67,0.62,1.45,0.62,2.15l0.01,2.18l-127.84,73.96c-0.56,0.32-1.07,0.87-1.45,1.5c-0.44,0.7-0.71,1.52-0.71,2.25v142.75
			c0,5.18,3.64,11.47,8.13,14.06c4.48,2.59,8.12,0.49,8.12-4.69v-142.9c0-0.69,0.24-1.45,0.63-2.13c0.4-0.68,0.94-1.28,1.54-1.62
			l131.28-75.8C212.682,109.448,212.913,110.167,212.913,110.808z"/>
		<path id="XMLID_78_" style="fill:#E0E0E0;" d="M200.722,103.927v6.88l-123.76,71.46c-0.6,0.34-1.13,0.93-1.53,1.61
			c-0.4,0.68-0.64,1.45-0.64,2.14v142.9c0,2.59-1.81,3.64-4.05,2.34c-2.25-1.29-4.06-4.44-4.06-7.03v-142.9
			c0-0.69,0.24-1.46,0.63-2.14c0.41-0.68,0.94-1.26,1.53-1.61l131.27-75.79C200.492,102.457,200.722,103.227,200.722,103.927z"/>
		<g id="XMLID_34_">
			<path id="XMLID_82_" style="fill:#EBEBEB;" d="M87.613,190.917c-0.39,0.67-0.63,1.44-0.63,2.13v141.67c0,1.09-0.07,2.11-0.2,3.08
				c-0.04,0.27-0.08,0.53-0.12,0.78c-0.05,0.24-0.09,0.47-0.14,0.71c-0.05,0.21-0.1,0.42-0.16,0.62c-0.05,0.2-0.1,0.39-0.16,0.58
				c-0.88,2.73-2.39,4.73-4.36,5.86c-2.91,1.67-6.81,1.47-11.1-1.01c-8.98-5.18-16.25-18.34-16.25-29.38v-141.67
				c0-0.69,0.24-1.46,0.63-2.13l4.07,2.34c-0.4,0.68-0.64,1.45-0.64,2.14v142.9c0,7.77,5.46,17.22,12.19,21.1
				c6.72,3.89,12.18,0.74,12.18-7.03v-142.9c0-0.69,0.24-1.46,0.64-2.14L87.613,190.917z"/>
			<path id="XMLID_81_" style="fill:#EBEBEB;" d="M79.492,186.227c-0.39,0.68-0.63,1.44-0.63,2.13v142.9c0,5.18-3.64,7.28-8.12,4.69
				c-4.49-2.59-8.13-8.88-8.13-14.06v-142.75c0-0.73,0.27-1.55,0.71-2.25l3.99,2.3c-0.39,0.68-0.63,1.45-0.63,2.14v142.9
				c0,2.59,1.81,5.74,4.06,7.03c2.24,1.3,4.05,0.25,4.05-2.34v-142.9c0-0.69,0.24-1.46,0.64-2.14L79.492,186.227z"/>
		</g>
		<g id="XMLID_18_">
			<path id="XMLID_80_" style="fill:#FAFAFA;" d="M191.982,97.097l-11.57,6.68l-119.69,69.11c-0.6,0.34-1.13,0.93-1.53,1.61
				l-4.07-2.34c0.39-0.68,0.93-1.27,1.53-1.62c13.78-7.95,89.73-51.81,119.7-69.11l2.31-1.34l2.29-1.32l2.01-1.16l1.19-0.69
				l2.21-1.27c1.2-0.69,3.08-0.73,4.2-0.08C191.122,95.887,191.613,96.448,191.982,97.097z"/>
			<path id="XMLID_79_" style="fill:#FAFAFA;" d="M220.413,113.507v0.01l-11.57,6.68l-20.31,11.72l-99.38,57.38
				c-0.6,0.35-1.14,0.94-1.54,1.62l-4.05-2.35c0.4-0.68,0.93-1.26,1.53-1.61l107.51-62.07l12.18-7.04h0.01l8.12-4.69l1.89-1.09
				l0.15-0.09c1.19-0.61,2.93-0.62,4-0.02c0.02,0.01,0.03,0.01,0.04,0.02c0.07,0.04,0.14,0.08,0.21,0.13
				C219.673,112.438,220.092,112.938,220.413,113.507z"/>
			<path id="XMLID_77_" style="fill:#FAFAFA;" d="M200.113,101.787l-131.27,75.79c-0.59,0.35-1.12,0.93-1.53,1.61l-3.99-2.3
				c0.38-0.63,0.89-1.18,1.45-1.5l127.84-73.96l1.88-1.09c1.2-0.69,3.08-0.73,4.2-0.08
				C199.242,100.577,199.742,101.137,200.113,101.787z"/>
			<path id="XMLID_75_" style="fill:#FAFAFA;" d="M212.313,108.808l-131.28,75.8c-0.6,0.34-1.14,0.94-1.54,1.62l-4.06-2.35
				c0.4-0.68,0.93-1.27,1.53-1.61l123.76-71.46l5.96-3.44c1.2-0.69,3.07-0.72,4.2-0.07
				C211.443,107.618,211.952,108.167,212.313,108.808z"/>
		</g>
		<g id="XMLID_156_">
			<path id="XMLID_69_" style="fill:#F5F5F5;" d="M221.033,115.657v141.67c0,5.81-2.01,9.88-5.23,11.68L81.65,346.454
				c2.12-1.23,3.902-3.376,4.712-6.546c0.06-0.2,0.11-0.41,0.16-0.62c0.05-0.24,0.09-0.47,0.14-0.71c0.04-0.25,0.08-0.51,0.12-0.78
				c0.13-0.97,0.2-1.99,0.2-3.08v-141.67c0-0.69,0.24-1.46,0.63-2.13c0.4-0.68,0.94-1.27,1.54-1.62l99.38-57.38l20.31-11.72
				l11.57-6.68C220.803,114.188,221.033,114.957,221.033,115.657z"/>
		</g>
		<path id="XMLID_40_" style="fill:#455A64;" d="M101.337,191.647l20.042-11.571c1.196-0.69,2.165-0.131,2.165,1.25l0,27.831
			c0,1.381-0.969,3.06-2.165,3.75l-20.042,11.571c-1.196,0.69-2.165,0.131-2.165-1.25l0-27.831
			C99.172,194.016,100.142,192.337,101.337,191.647z"/>
		<polygon id="XMLID_43_" style="fill:#27DEBF;" points="99.173,235.109 208.847,171.788 208.847,176.479 99.173,239.799 		"/>
		<polygon id="XMLID_183_" style="opacity:0.4;fill:#FFFFFF;" points="99.173,235.109 208.847,171.788 208.847,176.479 
			99.173,239.799 		"/>
		<g id="XMLID_120_">
			<path id="XMLID_48_" style="fill:#F0F0F0;" d="M100.472,248.43l21.774-12.571c0.718-0.414,1.299-0.078,1.299,0.75v43.904
				c0,0.828-0.582,1.836-1.299,2.25l-21.774,12.571c-0.717,0.414-1.299,0.078-1.299-0.75l0-43.904
				C99.173,249.852,99.754,248.844,100.472,248.43z"/>
			<path id="XMLID_58_" style="fill:#F0F0F0;" d="M100.472,300.025l21.774-12.571c0.718-0.414,1.299-0.078,1.299,0.75v34.356
				l-24.372,14.071l0-34.356C99.173,301.447,99.754,300.44,100.472,300.025z"/>
			<path id="XMLID_52_" style="fill:#F0F0F0;" d="M128.906,232.014l21.774-12.571c0.717-0.414,1.299-0.079,1.299,0.75v57.976
				c0,0.828-0.582,1.836-1.299,2.25l-21.774,12.571c-0.717,0.414-1.299,0.078-1.299-0.75l0-57.976
				C127.607,233.435,128.189,232.428,128.906,232.014z"/>
			<path id="XMLID_55_" style="fill:#F0F0F0;" d="M157.341,215.597l21.774-12.571c0.717-0.414,1.299-0.078,1.299,0.75v43.905
				c0,0.828-0.582,1.836-1.299,2.25l-21.774,12.571c-0.717,0.414-1.299,0.078-1.299-0.75l0-43.905
				C156.042,217.018,156.623,216.011,157.341,215.597z"/>
			<path id="XMLID_57_" style="fill:#F0F0F0;" d="M185.775,199.18l21.774-12.571c0.717-0.414,1.299-0.079,1.299,0.75v57.977
				c0,0.828-0.582,1.836-1.299,2.25l-21.774,12.571c-0.717,0.414-1.299,0.078-1.299-0.75l0-57.977
				C184.476,200.602,185.058,199.594,185.775,199.18z"/>
			<path id="XMLID_51_" style="fill:#F0F0F0;" d="M128.906,297.68l21.774-12.571c0.717-0.414,1.299-0.078,1.299,0.75l0,20.285
				l-24.372,14.071l0-20.285C127.607,299.102,128.189,298.095,128.906,297.68z"/>
			<path id="XMLID_67_" style="fill:#F0F0F0;" d="M156.041,269.443l0,34.356l24.372-14.071l0-34.356c0-0.828-0.582-1.164-1.299-0.75
				l-21.774,12.571C156.623,267.607,156.041,268.614,156.041,269.443z"/>
			<path id="XMLID_68_" style="fill:#F0F0F0;" d="M185.775,264.847l21.774-12.571c0.717-0.414,1.299-0.078,1.299,0.75l0,20.285
				l-24.372,14.071l0-20.285C184.476,266.269,185.057,265.262,185.775,264.847z"/>
			<path id="XMLID_160_" style="fill:#E0E0E0;" d="M132.968,300.039l13.65-7.881c0.717-0.414,1.299-0.078,1.299,0.75v11.072
				c0,0.828-0.582,1.836-1.299,2.25l-13.651,7.881c-0.717,0.414-1.299,0.078-1.299-0.75l0.001-11.071
				C131.669,301.461,132.251,300.453,132.968,300.039z"/>
			<path id="XMLID_163_" style="fill:#E0E0E0;" d="M189.837,267.207l13.65-7.881c0.717-0.414,1.299-0.078,1.299,0.75v11.072
				c0,0.828-0.582,1.836-1.299,2.25l-13.651,7.881c-0.718,0.414-1.299,0.078-1.299-0.75l0.001-11.071
				C188.538,268.629,189.12,267.621,189.837,267.207z"/>
			<g id="XMLID_76_">
				<path id="XMLID_73_" style="fill:#E0E0E0;" d="M104.534,250.776l13.65-7.881c0.717-0.414,1.299-0.079,1.299,0.75v11.072
					c0,0.828-0.582,1.836-1.299,2.25l-13.651,7.881c-0.717,0.414-1.299,0.078-1.299-0.75l0.001-11.071
					C103.235,252.197,103.817,251.19,104.534,250.776z"/>
				<path id="XMLID_74_" style="fill:#E0E0E0;" d="M104.1,267.444l14.517-8.381c0.478-0.276,0.866-0.052,0.866,0.5v0.346
					c0,0.552-0.388,1.224-0.866,1.5l-14.516,8.381c-0.478,0.276-0.866,0.052-0.866-0.5v-0.345
					C103.234,268.392,103.622,267.72,104.1,267.444z"/>
				<path id="XMLID_85_" style="fill:#E0E0E0;" d="M104.1,272.134l14.517-8.381c0.478-0.276,0.866-0.052,0.866,0.5v0.346
					c0,0.552-0.388,1.224-0.866,1.5l-14.516,8.381c-0.478,0.276-0.866,0.052-0.866-0.5v-0.345
					C103.234,273.082,103.622,272.41,104.1,272.134z"/>
				<path id="XMLID_86_" style="fill:#E0E0E0;" d="M104.1,276.824l14.517-8.381c0.478-0.276,0.866-0.052,0.866,0.5v0.346
					c0,0.552-0.388,1.224-0.866,1.5l-14.516,8.381c-0.478,0.276-0.866,0.052-0.866-0.5v-0.345
					C103.234,277.772,103.622,277.1,104.1,276.824z"/>
				<path id="XMLID_107_" style="fill:#E0E0E0;" d="M104.1,281.514l14.517-8.381c0.478-0.276,0.866-0.052,0.866,0.5v0.345
					c0,0.552-0.388,1.224-0.866,1.5l-14.516,8.381c-0.478,0.276-0.866,0.052-0.866-0.5v-0.345
					C103.234,282.462,103.622,281.791,104.1,281.514z"/>
				<path id="XMLID_112_" style="fill:#E0E0E0;" d="M104.1,286.204l14.517-8.381c0.478-0.276,0.866-0.052,0.866,0.5v0.346
					c0,0.552-0.388,1.224-0.866,1.5l-14.516,8.381c-0.478,0.276-0.866,0.052-0.866-0.5v-0.345
					C103.234,287.152,103.622,286.481,104.1,286.204z"/>
			</g>
			<g id="XMLID_121_">
				<path id="XMLID_147_" style="fill:#E0E0E0;" d="M132.968,234.358l13.65-7.881c0.717-0.414,1.299-0.078,1.299,0.75v11.072
					c0,0.828-0.582,1.836-1.299,2.25l-13.651,7.881c-0.718,0.414-1.299,0.078-1.299-0.75l0.001-11.071
					C131.669,235.78,132.251,234.773,132.968,234.358z"/>
				<path id="XMLID_146_" style="fill:#E0E0E0;" d="M132.534,251.027l14.517-8.381c0.478-0.276,0.866-0.052,0.866,0.5v0.346
					c0,0.552-0.388,1.224-0.866,1.5l-14.516,8.381c-0.478,0.276-0.866,0.052-0.866-0.5v-0.345
					C131.669,251.975,132.056,251.303,132.534,251.027z"/>
				<path id="XMLID_125_" style="fill:#E0E0E0;" d="M132.534,255.717l14.517-8.381c0.478-0.276,0.866-0.052,0.866,0.5v0.346
					c0,0.552-0.388,1.224-0.866,1.5l-14.516,8.381c-0.478,0.276-0.866,0.052-0.866-0.5v-0.345
					C131.669,256.665,132.056,255.993,132.534,255.717z"/>
				<path id="XMLID_124_" style="fill:#E0E0E0;" d="M132.534,260.407l14.517-8.381c0.478-0.276,0.866-0.052,0.866,0.5v0.346
					c0,0.552-0.388,1.224-0.866,1.5l-14.516,8.381c-0.478,0.276-0.866,0.052-0.866-0.5v-0.345
					C131.669,261.355,132.056,260.683,132.534,260.407z"/>
				<path id="XMLID_123_" style="fill:#E0E0E0;" d="M132.534,265.097l14.517-8.381c0.478-0.276,0.866-0.052,0.866,0.5v0.346
					c0,0.552-0.388,1.224-0.866,1.5l-14.516,8.381c-0.478,0.276-0.866,0.052-0.866-0.5v-0.345
					C131.669,266.045,132.056,265.373,132.534,265.097z"/>
				<path id="XMLID_122_" style="fill:#E0E0E0;" d="M132.534,269.787l14.517-8.381c0.478-0.276,0.866-0.052,0.866,0.5v0.346
					c0,0.552-0.388,1.224-0.866,1.5l-14.516,8.381c-0.478,0.276-0.866,0.052-0.866-0.5v-0.345
					C131.669,270.735,132.056,270.063,132.534,269.787z"/>
				<path id="XMLID_158_" style="fill:#E0E0E0;" d="M132.534,274.479l14.517-8.381c0.478-0.276,0.866-0.052,0.866,0.5v0.346
					c0,0.552-0.388,1.224-0.866,1.5l-14.516,8.381c-0.478,0.276-0.866,0.052-0.866-0.5v-0.345
					C131.669,275.427,132.056,274.755,132.534,274.479z"/>
				<path id="XMLID_157_" style="fill:#E0E0E0;" d="M132.534,279.169l14.517-8.381c0.478-0.276,0.866-0.052,0.866,0.5v0.346
					c0,0.552-0.388,1.224-0.866,1.5l-14.516,8.381c-0.478,0.276-0.866,0.052-0.866-0.5v-0.345
					C131.669,280.117,132.056,279.445,132.534,279.169z"/>
				<path id="XMLID_148_" style="fill:#E0E0E0;" d="M132.534,283.859l14.517-8.381c0.478-0.276,0.866-0.052,0.866,0.5v0.346
					c0,0.552-0.388,1.224-0.866,1.5l-14.516,8.381c-0.478,0.276-0.866,0.052-0.866-0.5v-0.345
					C131.669,284.807,132.056,284.136,132.534,283.859z"/>
			</g>
			<g id="XMLID_113_">
				<path id="XMLID_119_" style="fill:#E0E0E0;" d="M104.534,302.376l13.65-7.881c0.717-0.414,1.299-0.078,1.299,0.75v11.072
					c0,0.828-0.582,1.836-1.299,2.25l-13.651,7.881c-0.717,0.414-1.299,0.078-1.299-0.75l0.001-11.071
					C103.235,303.798,103.817,302.791,104.534,302.376z"/>
				<path id="XMLID_116_" style="fill:#E0E0E0;" d="M104.1,319.045l14.517-8.381c0.478-0.276,0.866-0.052,0.866,0.5v0.346
					c0,0.552-0.388,1.224-0.866,1.5l-14.516,8.381c-0.478,0.276-0.866,0.052-0.866-0.5v-0.345
					C103.234,319.993,103.622,319.321,104.1,319.045z"/>
				<path id="XMLID_115_" style="fill:#E0E0E0;" d="M104.1,323.735l14.517-8.381c0.478-0.276,0.866-0.052,0.866,0.5v0.346
					c0,0.552-0.388,1.224-0.866,1.5l-14.516,8.381c-0.478,0.276-0.866,0.052-0.866-0.5v-0.345
					C103.234,324.683,103.622,324.011,104.1,323.735z"/>
				<path id="XMLID_114_" style="fill:#E0E0E0;" d="M104.1,328.425l14.517-8.381c0.478-0.276,0.866-0.052,0.866,0.5v0.345
					c0,0.552-0.388,1.224-0.866,1.5l-14.516,8.381c-0.478,0.276-0.866,0.052-0.866-0.5v-0.345
					C103.234,329.373,103.622,328.701,104.1,328.425z"/>
			</g>
			<g id="XMLID_176_">
				<path id="XMLID_182_" style="fill:#E0E0E0;" d="M161.403,217.944l13.65-7.881c0.717-0.414,1.299-0.079,1.299,0.75v11.072
					c0,0.828-0.582,1.836-1.299,2.25l-13.651,7.881c-0.717,0.414-1.299,0.078-1.299-0.75l0.001-11.071
					C160.104,219.365,160.686,218.358,161.403,217.944z"/>
				<path id="XMLID_181_" style="fill:#E0E0E0;" d="M160.97,234.612l14.517-8.381c0.478-0.276,0.866-0.052,0.866,0.5v0.346
					c0,0.552-0.388,1.224-0.866,1.5l-14.516,8.381c-0.478,0.276-0.866,0.052-0.866-0.5l0-0.345
					C160.104,235.56,160.491,234.888,160.97,234.612z"/>
				<path id="XMLID_180_" style="fill:#E0E0E0;" d="M160.97,239.302l14.517-8.381c0.478-0.276,0.866-0.052,0.866,0.5v0.346
					c0,0.552-0.388,1.224-0.866,1.5l-14.516,8.381c-0.478,0.276-0.866,0.052-0.866-0.5l0-0.345
					C160.104,240.25,160.491,239.578,160.97,239.302z"/>
				<path id="XMLID_179_" style="fill:#E0E0E0;" d="M160.97,243.992l14.517-8.381c0.478-0.276,0.866-0.052,0.866,0.5v0.345
					c0,0.552-0.388,1.224-0.866,1.5l-14.516,8.381c-0.478,0.276-0.866,0.052-0.866-0.5l0-0.345
					C160.104,244.94,160.491,244.268,160.97,243.992z"/>
				<path id="XMLID_178_" style="fill:#E0E0E0;" d="M160.97,248.682l14.517-8.381c0.478-0.276,0.866-0.052,0.866,0.5v0.346
					c0,0.552-0.388,1.224-0.866,1.5l-14.516,8.381c-0.478,0.276-0.866,0.052-0.866-0.5l0-0.345
					C160.104,249.63,160.491,248.958,160.97,248.682z"/>
				<path id="XMLID_177_" style="fill:#E0E0E0;" d="M160.97,253.372l14.517-8.381c0.478-0.276,0.866-0.052,0.866,0.5v0.346
					c0,0.552-0.388,1.224-0.866,1.5l-14.516,8.381c-0.478,0.276-0.866,0.052-0.866-0.5l0-0.345
					C160.104,254.32,160.491,253.649,160.97,253.372z"/>
			</g>
			<g id="XMLID_166_">
				<path id="XMLID_175_" style="fill:#E0E0E0;" d="M189.837,201.526l13.65-7.881c0.717-0.414,1.299-0.078,1.299,0.75v11.072
					c0,0.828-0.582,1.836-1.299,2.25l-13.651,7.881c-0.717,0.414-1.299,0.078-1.299-0.75l0.001-11.071
					C188.538,202.948,189.12,201.941,189.837,201.526z"/>
				<path id="XMLID_174_" style="fill:#E0E0E0;" d="M189.404,218.195l14.517-8.381c0.478-0.276,0.866-0.052,0.866,0.5v0.346
					c0,0.552-0.388,1.224-0.866,1.5l-14.516,8.381c-0.478,0.276-0.866,0.052-0.866-0.5l0-0.345
					C188.538,219.143,188.926,218.471,189.404,218.195z"/>
				<path id="XMLID_173_" style="fill:#E0E0E0;" d="M189.404,222.885l14.517-8.381c0.478-0.276,0.866-0.052,0.866,0.5v0.345
					c0,0.552-0.388,1.224-0.866,1.5l-14.516,8.381c-0.478,0.276-0.866,0.052-0.866-0.5l0-0.345
					C188.538,223.833,188.926,223.161,189.404,222.885z"/>
				<path id="XMLID_172_" style="fill:#E0E0E0;" d="M189.404,227.575l14.517-8.381c0.478-0.276,0.866-0.052,0.866,0.5v0.346
					c0,0.552-0.388,1.224-0.866,1.5l-14.516,8.381c-0.478,0.276-0.866,0.052-0.866-0.5l0-0.345
					C188.538,228.523,188.926,227.851,189.404,227.575z"/>
				<path id="XMLID_171_" style="fill:#E0E0E0;" d="M189.404,232.265l14.517-8.381c0.478-0.276,0.866-0.052,0.866,0.5v0.346
					c0,0.552-0.388,1.224-0.866,1.5l-14.516,8.381c-0.478,0.276-0.866,0.052-0.866-0.5l0-0.345
					C188.538,233.213,188.926,232.541,189.404,232.265z"/>
				<path id="XMLID_170_" style="fill:#E0E0E0;" d="M189.404,236.955l14.517-8.381c0.478-0.276,0.866-0.052,0.866,0.5v0.346
					c0,0.552-0.388,1.224-0.866,1.5l-14.516,8.381c-0.478,0.276-0.866,0.052-0.866-0.5l0-0.345
					C188.538,237.903,188.926,237.231,189.404,236.955z"/>
				<path id="XMLID_169_" style="fill:#E0E0E0;" d="M189.404,241.647l14.517-8.381c0.478-0.276,0.866-0.052,0.866,0.5v0.346
					c0,0.552-0.388,1.224-0.866,1.5l-14.516,8.381c-0.478,0.276-0.866,0.052-0.866-0.5l0-0.345
					C188.538,242.595,188.926,241.923,189.404,241.647z"/>
				<path id="XMLID_168_" style="fill:#E0E0E0;" d="M189.404,246.337l14.517-8.381c0.478-0.276,0.866-0.052,0.866,0.5v0.346
					c0,0.552-0.388,1.224-0.866,1.5l-14.516,8.381c-0.478,0.276-0.866,0.052-0.866-0.5l0-0.345
					C188.538,247.285,188.926,246.613,189.404,246.337z"/>
				<path id="XMLID_167_" style="fill:#E0E0E0;" d="M189.404,251.027l14.517-8.381c0.478-0.276,0.866-0.052,0.866,0.5v0.346
					c0,0.552-0.388,1.224-0.866,1.5l-14.516,8.381c-0.478,0.276-0.866,0.052-0.866-0.5l0-0.345
					C188.538,251.975,188.926,251.304,189.404,251.027z"/>
			</g>
			<g id="XMLID_159_">
				<path id="XMLID_165_" style="fill:#E0E0E0;" d="M161.403,269.544l13.65-7.881c0.717-0.414,1.299-0.078,1.299,0.75v11.072
					c0,0.828-0.582,1.836-1.299,2.25l-13.651,7.881c-0.717,0.414-1.299,0.078-1.299-0.75l0.001-11.071
					C160.104,270.966,160.686,269.959,161.403,269.544z"/>
				<path id="XMLID_164_" style="fill:#E0E0E0;" d="M160.97,286.213l14.517-8.381c0.478-0.276,0.866-0.052,0.866,0.5v0.346
					c0,0.552-0.388,1.224-0.866,1.5l-14.516,8.381c-0.478,0.276-0.866,0.052-0.866-0.5l0-0.345
					C160.104,287.161,160.491,286.489,160.97,286.213z"/>
				<path id="XMLID_162_" style="fill:#E0E0E0;" d="M160.97,290.903l14.517-8.381c0.478-0.276,0.866-0.052,0.866,0.5v0.345
					c0,0.552-0.388,1.224-0.866,1.5l-14.516,8.381c-0.478,0.276-0.866,0.052-0.866-0.5l0-0.345
					C160.104,291.851,160.491,291.179,160.97,290.903z"/>
				<path id="XMLID_161_" style="fill:#E0E0E0;" d="M160.97,295.593l14.517-8.381c0.478-0.276,0.866-0.052,0.866,0.5v0.345
					c0,0.552-0.388,1.224-0.866,1.5l-14.516,8.381c-0.478,0.276-0.866,0.052-0.866-0.5l0-0.345
					C160.104,296.541,160.491,295.869,160.97,295.593z"/>
			</g>
		</g>
		<g id="XMLID_206_">
			<path id="XMLID_207_" style="fill:#455A64;" d="M132.299,204.061c-0.2-0.07-0.3-0.258-0.3-0.566c0-0.246,0.06-0.544,0.18-0.891
				l1.082-3.445c0.16-0.463,0.311-0.734,0.451-0.816c0.12-0.069,0.28-0.053,0.48,0.046c1.041,0.48,2.183,0.359,3.425-0.357
				c0.941-0.544,1.627-1.302,2.058-2.275c0.43-0.973,0.646-2.2,0.646-3.681v-20.211c0-0.678,0.105-1.247,0.315-1.708
				c0.21-0.461,0.566-0.835,1.066-1.124l2.223-1.283c0.501-0.289,0.856-0.325,1.066-0.108c0.21,0.219,0.315,0.667,0.315,1.345
				v20.211c0,3.022-0.586,5.767-1.757,8.23c-1.172,2.465-2.889,4.35-5.152,5.656C135.994,204.471,133.961,204.798,132.299,204.061z"
				/>
			<path id="XMLID_224_" style="fill:#455A64;" d="M150.308,191.906c-1.792-1.832-2.689-5.354-2.689-10.564
				c0-5.211,0.896-9.768,2.689-13.67c1.792-3.902,4.391-6.837,7.795-8.802c3.384-1.954,5.973-2.016,7.765-0.182
				c1.792,1.832,2.688,5.354,2.688,10.564c0,5.211-0.896,9.768-2.688,13.67c-1.792,3.902-4.381,6.83-7.765,8.783
				C154.698,193.673,152.1,193.739,150.308,191.906z M162.233,181.067c0.931-2.372,1.397-5.362,1.397-8.97
				c0-3.607-0.466-6.06-1.397-7.356c-0.932-1.297-2.308-1.42-4.13-0.367c-1.843,1.063-3.229,2.782-4.161,5.153
				c-0.931,2.373-1.396,5.362-1.396,8.97c0,3.607,0.465,6.061,1.396,7.356c0.931,1.298,2.318,1.414,4.161,0.351
				C159.925,185.151,161.302,183.439,162.233,181.067z"/>
			<path id="XMLID_227_" style="fill:#455A64;" d="M171.335,182.887c-0.21-0.202-0.315-0.643-0.315-1.32V154.14
				c0-0.678,0.105-1.247,0.315-1.708c0.21-0.461,0.556-0.829,1.036-1.106l8.802-5.082c2.203-1.271,3.855-1.447,4.957-0.526
				c1.101,0.922,1.652,2.754,1.652,5.498c0,1.449-0.226,2.874-0.676,4.275c-0.45,1.4-1.066,2.573-1.848,3.518
				c2.063-0.143,3.094,1.59,3.094,5.197c0,1.758-0.266,3.5-0.796,5.223c-0.531,1.726-1.332,3.307-2.403,4.741
				c-1.072,1.436-2.398,2.61-3.98,3.523l-8.802,5.082C171.891,183.052,171.545,183.089,171.335,182.887z M180.332,159.448
				c0.801-0.463,1.422-1.129,1.862-2c0.441-0.871,0.661-1.892,0.661-3.064c0-1.264-0.206-2.047-0.616-2.35
				c-0.411-0.303-1.047-0.205-1.908,0.291l-4.356,2.516v7.122L180.332,159.448z M180.813,172.305
				c0.881-0.508,1.537-1.249,1.967-2.223c0.431-0.973,0.646-2.046,0.646-3.218c0-1.325-0.251-2.175-0.751-2.55
				c-0.501-0.373-1.202-0.3-2.103,0.221l-4.596,2.653v7.909L180.813,172.305z"/>
			<path id="XMLID_367_" style="fill:#455A64;" d="M192.814,170.903c-1.433,0.318-2.589,0.27-3.47-0.146
				c-0.301-0.166-0.451-0.388-0.451-0.665c0-0.186,0.05-0.429,0.15-0.734l1.232-3.718c0.12-0.377,0.25-0.606,0.391-0.688
				c0.12-0.069,0.27-0.064,0.45,0.018c0.741,0.22,1.592,0.252,2.553,0.098c0.962-0.153,1.933-0.514,2.914-1.08
				c1.161-0.671,2.023-1.453,2.584-2.349c0.56-0.893,0.841-1.957,0.841-3.19c0-0.833-0.135-1.433-0.405-1.801
				c-0.271-0.367-0.672-0.6-1.202-0.694c-0.53-0.094-1.347-0.147-2.448-0.159c-1.282,0-2.368-0.127-3.259-0.385
				c-0.892-0.255-1.622-0.828-2.193-1.716c-0.571-0.889-0.857-2.212-0.857-3.969c0-2.93,0.691-5.571,2.073-7.927
				c1.382-2.354,3.204-4.186,5.467-5.492c2.984-1.723,5.267-2.178,6.849-1.364c0.3,0.196,0.45,0.419,0.45,0.665
				c0,0.186-0.05,0.43-0.15,0.734l-1.232,3.717c-0.121,0.379-0.251,0.607-0.391,0.688c-0.12,0.07-0.27,0.064-0.451-0.017
				c-1.222-0.527-2.704-0.289-4.446,0.717c-2.163,1.249-3.244,3.075-3.244,5.48c0,0.802,0.124,1.386,0.375,1.749
				c0.25,0.365,0.595,0.597,1.036,0.697c0.44,0.1,1.131,0.156,2.073,0.167l0.841,0.023c1.462,0.051,2.614,0.226,3.455,0.526
				c0.841,0.3,1.487,0.891,1.938,1.771c0.45,0.881,0.676,2.215,0.676,4.004c0,2.682-0.656,5.197-1.968,7.541
				c-1.312,2.346-3.21,4.234-5.692,5.668C195.743,169.975,194.245,170.586,192.814,170.903z"/>
		</g>
	</g>
</g>
<g id="Speech_Bubbles">
	<g id="Tab_1_">
		<g id="XMLID_324_">
			<path id="XMLID_302_" style="fill:#27DEBF;" d="M317.77,74.669l0.002-0.001l-0.013-0.008c0,0-0.001-0.001-0.002-0.001
				l-4.058-2.349v0c-0.471-0.274-1.122-0.237-1.837,0.176l-51.672,29.907c-1.429,0.825-2.598,2.85-2.598,4.5v106.5
				c0,0.822,0.291,1.402,0.759,1.675l-0.001,0.001l0.004,0.003l0.001,0l4.047,2.34c0.01,0.006,0.021,0.012,0.031,0.018l0.053,0.031
				v-0.011c0.465,0.232,1.083,0.189,1.764-0.205l13.652-7.882v8.202c0,1.451,0.229,2.295,0.606,2.524l-0.003,0.005l4.029,2.329
				c0.004,0.003,0.008,0.004,0.012,0.007l0.046,0.027v-0.005c0.46,0.246,1.13-0.396,1.875-1.973l9.681-20.496l21.774-12.645
				c1.429-0.825,2.598-2.85,2.598-4.5v-106.5C318.521,75.52,318.233,74.945,317.77,74.669z"/>
			<path id="XMLID_333_" style="opacity:0.4;fill:#FFFFFF;" d="M317.665,74.606c-0.46-0.21-1.07-0.15-1.74,0.23l-51.68,29.91
				c-0.7,0.4-1.33,1.09-1.8,1.89l-4.06-2.35c0.47-0.8,1.1-1.49,1.8-1.89l51.68-29.91c0.41-0.24,0.81-0.35,1.15-0.35
				c0.26,0,0.48,0.06,0.68,0.17L317.665,74.606z"/>
			<path id="XMLID_329_" style="opacity:0.2;" d="M278.505,220.096v-0.01c-0.37-0.23-0.6-1.07-0.6-2.52v-8.2l4.06-2.35v12.9
				c0,1.38,0.21,2.22,0.55,2.5L278.505,220.096z"/>
			<path id="XMLID_330_" style="opacity:0.1;" d="M262.435,217.426c-0.01,0-0.02-0.01-0.03-0.01l-4.05-2.34l-0.01-0.01
				c-0.46-0.27-0.75-0.85-0.75-1.67v-106.5c0-0.84,0.3-1.78,0.79-2.61l4.06,2.35c-0.49,0.83-0.79,1.77-0.79,2.61v106.5
				C261.655,216.576,261.955,217.156,262.435,217.426z"/>
		</g>
		<g id="XMLID_319_">
			<path id="XMLID_301_" style="fill:#455A64;" d="M271.94,109.682l36.292-21.02c1.195-0.692,2.163-0.134,2.163,1.247v23.135
				c0,1.381-0.969,3.061-2.163,3.753l-36.292,21.021c-1.195,0.692-2.163,0.134-2.163-1.247l0-23.136
				C269.776,112.054,270.745,110.374,271.94,109.682z"/>
			<path id="XMLID_313_" style="fill:#455A64;" d="M310.395,122.591c0,1.295-0.969,2.905-2.165,3.595l-36.288,20.952
				c-1.196,0.69-2.165,0.2-2.165-1.096c0-1.295,0.969-2.905,2.165-3.596l36.288-20.951
				C309.426,120.805,310.395,121.295,310.395,122.591z"/>
			<path id="XMLID_315_" style="fill:#455A64;" d="M310.395,131.971c0,1.295-0.969,2.905-2.165,3.595l-36.288,20.952
				c-1.196,0.69-2.165,0.2-2.165-1.096c0-1.295,0.969-2.905,2.165-3.596l36.288-20.951
				C309.426,130.185,310.395,130.676,310.395,131.971z"/>
			<path id="XMLID_316_" style="fill:#455A64;" d="M310.395,141.351c0,1.295-0.969,2.905-2.165,3.595l-36.288,20.952
				c-1.196,0.69-2.165,0.2-2.165-1.095c0-1.296,0.969-2.905,2.165-3.596l36.288-20.951
				C309.426,139.565,310.395,140.056,310.395,141.351z"/>
			<path id="XMLID_317_" style="fill:#455A64;" d="M310.395,150.731c0,1.295-0.969,2.905-2.165,3.595l-36.288,20.952
				c-1.196,0.69-2.165,0.2-2.165-1.096c0-1.295,0.969-2.905,2.165-3.596l36.288-20.951
				C309.426,148.945,310.395,149.436,310.395,150.731z"/>
			<path id="XMLID_314_" style="fill:#455A64;" d="M269.776,183.566c0,1.295,0.969,1.786,2.165,1.095l3.794-2.191
				c1.196-0.69,2.165-2.3,2.165-3.595c0-1.295-0.969-1.786-2.165-1.095l-3.795,2.191
				C270.746,180.661,269.776,182.271,269.776,183.566z"/>
			<path id="XMLID_318_" style="fill:#455A64;" d="M283.404,175.717c0,1.295,0.97,1.785,2.166,1.095l22.661-13.102
				c1.196-0.69,2.165-2.3,2.165-3.596s-0.969-1.786-2.165-1.096l-22.663,13.104C284.372,172.812,283.403,174.422,283.404,175.717z"
				/>
			<path id="XMLID_321_" style="fill:#455A64;" d="M269.776,192.947c0,1.295,0.969,1.786,2.165,1.095l3.794-2.191
				c1.196-0.69,2.165-2.3,2.165-3.595c0-1.295-0.969-1.786-2.165-1.095l-3.795,2.19
				C270.746,190.042,269.776,191.651,269.776,192.947z"/>
			<path id="XMLID_320_" style="fill:#455A64;" d="M283.404,185.098c0,1.295,0.97,1.785,2.166,1.095l22.661-13.102
				c1.196-0.69,2.165-2.3,2.165-3.596s-0.969-1.786-2.165-1.096l-22.663,13.105C284.372,182.193,283.403,183.803,283.404,185.098z"
				/>
			<path id="XMLID_323_" style="fill:#455A64;" d="M269.776,202.327c0,1.295,0.969,1.786,2.165,1.095l3.794-2.191
				c1.196-0.69,2.165-2.3,2.165-3.595c0-1.295-0.969-1.786-2.165-1.095l-3.795,2.191
				C270.746,199.423,269.776,201.032,269.776,202.327z"/>
			<path id="XMLID_322_" style="fill:#455A64;" d="M283.404,194.479c0,1.295,0.97,1.785,2.166,1.095l22.661-13.102
				c1.196-0.69,2.165-2.3,2.165-3.596s-0.969-1.786-2.165-1.096l-22.663,13.104C284.372,191.574,283.403,193.184,283.404,194.479z"
				/>
		</g>
	</g>
	<g id="Tab">
		<g id="XMLID_360_">
			<path id="XMLID_364_" style="fill:#27DEBF;" d="M366.536,102.749l0.002-0.001l-0.014-0.008c-0.001,0-0.001-0.001-0.002-0.001
				l-4.058-2.349v0c-0.471-0.274-1.122-0.237-1.837,0.176l-51.672,29.907c-1.429,0.825-2.598,2.85-2.598,4.5v106.5
				c0,0.822,0.291,1.402,0.759,1.675l-0.001,0.001l0.004,0.003l0,0l4.047,2.34c0.01,0.006,0.021,0.012,0.031,0.018l0.053,0.031
				v-0.011c0.465,0.232,1.083,0.189,1.764-0.204l13.652-7.882v8.202c0,1.451,0.229,2.295,0.606,2.524l-0.003,0.005l4.029,2.329
				c0.004,0.003,0.008,0.004,0.012,0.007l0.046,0.027v-0.006c0.46,0.246,1.13-0.396,1.875-1.973l9.681-20.496l21.774-12.645
				c1.429-0.825,2.598-2.85,2.598-4.5v-106.5C367.287,103.601,366.999,103.024,366.536,102.749z"/>
			<path id="XMLID_363_" style="opacity:0.4;fill:#FFFFFF;" d="M366.432,102.686c-0.46-0.21-1.07-0.15-1.74,0.23l-51.68,29.91
				c-0.7,0.4-1.33,1.09-1.8,1.89l-4.06-2.35c0.47-0.8,1.1-1.49,1.8-1.89l51.68-29.91c0.41-0.24,0.81-0.35,1.15-0.35
				c0.26,0,0.48,0.06,0.68,0.17L366.432,102.686z"/>
			<path id="XMLID_362_" style="opacity:0.2;" d="M327.272,248.176v-0.01c-0.37-0.23-0.6-1.07-0.6-2.52v-8.2l4.06-2.35v12.9
				c0,1.38,0.21,2.22,0.55,2.5L327.272,248.176z"/>
			<path id="XMLID_361_" style="opacity:0.1;" d="M311.202,245.506c-0.01,0-0.02-0.01-0.03-0.01l-4.05-2.34l-0.01-0.01
				c-0.46-0.27-0.75-0.85-0.75-1.67v-106.5c0-0.84,0.3-1.78,0.79-2.61l4.06,2.35c-0.49,0.83-0.79,1.77-0.79,2.61v106.5
				C310.422,244.656,310.722,245.236,311.202,245.506z"/>
		</g>
		<g id="XMLID_334_">
			<path id="XMLID_359_" style="fill:#455A64;" d="M320.707,137.762l36.292-21.02c1.195-0.692,2.163-0.134,2.163,1.247v23.135
				c0,1.381-0.969,3.061-2.163,3.753l-36.292,21.021c-1.195,0.692-2.163,0.134-2.163-1.247l0-23.136
				C318.543,140.134,319.512,138.454,320.707,137.762z"/>
			<path id="XMLID_358_" style="fill:#455A64;" d="M359.162,150.671c0,1.295-0.969,2.905-2.165,3.595l-36.288,20.952
				c-1.196,0.69-2.165,0.2-2.165-1.096c0-1.296,0.969-2.905,2.165-3.596l36.288-20.951
				C358.193,148.885,359.162,149.375,359.162,150.671z"/>
			<path id="XMLID_355_" style="fill:#455A64;" d="M359.162,160.051c0,1.295-0.969,2.905-2.165,3.595l-36.288,20.952
				c-1.196,0.69-2.165,0.2-2.165-1.096c0-1.295,0.969-2.905,2.165-3.596l36.288-20.951
				C358.193,158.265,359.162,158.756,359.162,160.051z"/>
			<path id="XMLID_354_" style="fill:#455A64;" d="M359.162,169.431c0,1.295-0.969,2.905-2.165,3.595l-36.288,20.952
				c-1.196,0.69-2.165,0.2-2.165-1.096c0-1.295,0.969-2.905,2.165-3.595l36.288-20.951
				C358.193,167.645,359.162,168.136,359.162,169.431z"/>
			<path id="XMLID_353_" style="fill:#455A64;" d="M359.162,178.811c0,1.295-0.969,2.905-2.165,3.595l-36.288,20.952
				c-1.196,0.69-2.165,0.2-2.165-1.096c0-1.295,0.969-2.905,2.165-3.596l36.288-20.951
				C358.193,177.025,359.162,177.516,359.162,178.811z"/>
			<path id="XMLID_352_" style="fill:#455A64;" d="M318.543,211.646c0,1.295,0.969,1.786,2.165,1.095l3.794-2.191
				c1.196-0.69,2.165-2.3,2.165-3.595c0-1.295-0.969-1.786-2.165-1.095l-3.795,2.191
				C319.512,208.741,318.543,210.351,318.543,211.646z"/>
			<path id="XMLID_348_" style="fill:#455A64;" d="M332.17,203.797c0,1.295,0.97,1.785,2.166,1.095l22.661-13.102
				c1.196-0.69,2.165-2.3,2.165-3.596s-0.969-1.786-2.165-1.096l-22.663,13.105C333.139,200.893,332.17,202.502,332.17,203.797z"/>
			<path id="XMLID_347_" style="fill:#455A64;" d="M318.543,221.027c0,1.295,0.969,1.786,2.165,1.095l3.794-2.191
				c1.196-0.69,2.165-2.3,2.165-3.595c0-1.295-0.969-1.786-2.165-1.095l-3.795,2.191
				C319.512,218.122,318.543,219.731,318.543,221.027z"/>
			<path id="XMLID_346_" style="fill:#455A64;" d="M332.17,213.178c0,1.295,0.97,1.785,2.166,1.095l22.661-13.102
				c1.196-0.69,2.165-2.3,2.165-3.596s-0.969-1.786-2.165-1.096l-22.663,13.104C333.139,210.273,332.17,211.883,332.17,213.178z"/>
			<path id="XMLID_336_" style="fill:#455A64;" d="M318.543,230.407c0,1.295,0.969,1.786,2.165,1.095l3.794-2.191
				c1.196-0.69,2.165-2.3,2.165-3.595c0-1.295-0.969-1.786-2.165-1.095l-3.795,2.191
				C319.512,227.503,318.543,229.112,318.543,230.407z"/>
			<path id="XMLID_335_" style="fill:#455A64;" d="M332.17,222.559c0,1.295,0.97,1.785,2.166,1.095l22.661-13.102
				c1.196-0.69,2.165-2.3,2.165-3.596s-0.969-1.786-2.165-1.096l-22.663,13.104C333.139,219.654,332.17,221.264,332.17,222.559z"/>
		</g>
	</g>
</g>
<g id="Icons">
	<g id="XMLID_377_">
		<g id="XMLID_465_">
			<g id="XMLID_470_">
				<g id="XMLID_471_">
					<g id="XMLID_472_">
						<path id="XMLID_473_" style="fill:#27DEBF;" d="M419.384,61.469l-5.341-3.081c-0.002-0.001-0.005-0.002-0.006-0.003
							l-0.049-0.028l-0.005,0.008c-2.371-1.338-5.625-1.137-9.224,0.94c-7.247,4.185-13.124,14.362-13.124,22.731
							c0,4.178,1.465,7.114,3.832,8.488v0.002l0.011,0.006l0.002,0.001l4.86,2.775l1.161-1.942c1.199-0.275,2.447-0.703,3.764-1.464
							c7.247-4.185,13.124-14.362,13.125-22.731c0-1.243-0.167-2.337-0.412-3.352L419.384,61.469z"/>
					</g>
				</g>
			</g>
			<g id="XMLID_467_">
				<path id="XMLID_469_" style="fill:#263238;" d="M391.638,82.035c0,4.179,1.462,7.114,3.829,8.487v0.005l0.015,0.005l4.861,2.776
					l1.161-1.941c1.195-0.277,2.445-0.706,3.764-1.467c3.878-2.238,7.366-6.2,9.767-10.675L396,68.237
					C393.322,72.555,391.638,77.554,391.638,82.035z"/>
				<path id="XMLID_468_" style="fill:#455A64;" d="M419.386,61.469l-5.34-3.083c0,0-0.005,0-0.01,0l-0.049-0.03l-0.005,0.01
					c-2.371-1.339-5.622-1.141-9.223,0.938c-3.369,1.941-6.442,5.182-8.759,8.932l19.034,10.987
					c2.09-3.888,3.359-8.166,3.359-12.054c0-1.245-0.168-2.337-0.415-3.354L419.386,61.469z"/>
			</g>
			<path id="XMLID_466_" style="fill:#37474F;" d="M409.834,62.216c-7.248,4.185-13.125,14.362-13.125,22.731
				c0,8.369,5.875,11.762,13.124,7.577c7.248-4.185,13.124-14.362,13.125-22.731C422.958,61.423,417.083,58.031,409.834,62.216z"/>
		</g>
		<g id="XMLID_378_">
			<path id="XMLID_380_" style="fill:#FAFAFA;" d="M410.788,69.145c0.461-0.136,0.866-0.162,1.214-0.081
				c0.348,0.081,0.64,0.235,0.875,0.462c0.235,0.227,0.414,0.503,0.537,0.831c0.123,0.329,0.193,0.66,0.212,0.998
				c0.009,0.168-0.026,0.329-0.105,0.484c-0.081,0.155-0.172,0.263-0.276,0.322l-0.988,0.571c-0.16,0.092-0.28,0.114-0.36,0.066
				c-0.08-0.048-0.153-0.133-0.218-0.255c-0.142-0.28-0.356-0.472-0.643-0.575c-0.288-0.101-0.713,0.01-1.278,0.336
				c-0.245,0.142-0.478,0.316-0.699,0.523c-0.221,0.207-0.415,0.435-0.579,0.682c-0.165,0.248-0.294,0.508-0.388,0.779
				c-0.094,0.271-0.141,0.545-0.141,0.82c0,0.334,0.051,0.575,0.155,0.726c0.104,0.151,0.271,0.235,0.501,0.255
				c0.231,0.019,0.527-0.012,0.89-0.09c0.362-0.08,0.803-0.182,1.32-0.307c0.565-0.138,1.042-0.191,1.433-0.164
				c0.391,0.028,0.71,0.148,0.96,0.358c0.249,0.212,0.429,0.518,0.537,0.919c0.108,0.401,0.162,0.899,0.162,1.493
				c0,0.565-0.071,1.136-0.212,1.709c-0.141,0.575-0.346,1.134-0.614,1.681c-0.268,0.547-0.596,1.062-0.982,1.545
				c-0.386,0.484-0.824,0.918-1.313,1.302v1.479c0,0.159-0.038,0.318-0.113,0.478c-0.075,0.16-0.165,0.27-0.268,0.329l-1.144,0.66
				c-0.104,0.06-0.193,0.054-0.268-0.019c-0.076-0.072-0.113-0.188-0.113-0.348v-1.478c-0.423,0.143-0.821,0.202-1.193,0.178
				c-0.372-0.024-0.697-0.13-0.974-0.317c-0.278-0.188-0.502-0.46-0.67-0.819c-0.17-0.358-0.264-0.809-0.283-1.348
				c-0.01-0.169,0.026-0.331,0.106-0.485c0.08-0.154,0.171-0.263,0.275-0.322l0.989-0.57c0.16-0.093,0.283-0.12,0.367-0.082
				c0.085,0.039,0.155,0.128,0.212,0.269c0.065,0.151,0.146,0.293,0.24,0.428c0.094,0.134,0.221,0.228,0.381,0.279
				c0.16,0.053,0.36,0.057,0.6,0.012c0.24-0.043,0.539-0.169,0.897-0.376c0.282-0.163,0.555-0.353,0.818-0.57
				c0.264-0.218,0.495-0.459,0.692-0.726c0.197-0.267,0.357-0.547,0.48-0.843c0.122-0.295,0.184-0.608,0.184-0.942
				c0-0.318-0.066-0.541-0.198-0.668c-0.132-0.127-0.332-0.186-0.6-0.176c-0.268,0.01-0.6,0.063-0.996,0.161
				c-0.396,0.099-0.852,0.195-1.37,0.291c-0.471,0.098-0.882,0.13-1.236,0.094c-0.353-0.035-0.645-0.159-0.875-0.375
				c-0.231-0.215-0.402-0.524-0.516-0.931c-0.113-0.405-0.169-0.936-0.169-1.588c0-0.564,0.07-1.127,0.212-1.687
				c0.141-0.56,0.336-1.104,0.585-1.632c0.25-0.527,0.548-1.02,0.897-1.474c0.348-0.455,0.729-0.86,1.144-1.215v-1.479
				c0-0.159,0.038-0.319,0.113-0.479c0.075-0.159,0.164-0.269,0.268-0.329l1.144-0.66c0.104-0.06,0.193-0.053,0.268,0.02
				c0.076,0.072,0.113,0.188,0.113,0.348V69.145z"/>
		</g>
	</g>
	<g id="XMLID_382_">
		<g id="XMLID_450_">
			<g id="XMLID_455_">
				<g id="XMLID_456_">
					<g id="XMLID_457_">
						<path id="XMLID_458_" style="fill:#27DEBF;" d="M419.384,159.323l-5.341-3.081c-0.002-0.001-0.005-0.002-0.006-0.003
							l-0.049-0.028l-0.005,0.008c-2.371-1.339-5.625-1.137-9.224,0.94c-7.247,4.185-13.124,14.362-13.124,22.731
							c0,4.178,1.465,7.114,3.832,8.488v0.002l0.011,0.006l0.002,0.001l4.86,2.775l1.161-1.942c1.199-0.275,2.447-0.703,3.764-1.464
							c7.247-4.185,13.124-14.362,13.125-22.731c0-1.243-0.167-2.337-0.412-3.352L419.384,159.323z"/>
					</g>
				</g>
			</g>
			<g id="XMLID_452_">
				<path id="XMLID_454_" style="fill:#263238;" d="M391.638,179.889c0,4.179,1.462,7.114,3.829,8.487v0.005l0.015,0.005
					l4.861,2.776l1.161-1.941c1.195-0.277,2.445-0.706,3.764-1.467c3.878-2.238,7.366-6.2,9.767-10.675L396,166.091
					C393.322,170.409,391.638,175.408,391.638,179.889z"/>
				<path id="XMLID_453_" style="fill:#455A64;" d="M419.386,159.323l-5.34-3.083c0,0-0.005,0-0.01,0l-0.049-0.03l-0.005,0.01
					c-2.371-1.339-5.622-1.141-9.223,0.938c-3.369,1.942-6.442,5.182-8.759,8.932l19.034,10.987
					c2.09-3.888,3.359-8.166,3.359-12.054c0-1.245-0.168-2.337-0.415-3.354L419.386,159.323z"/>
			</g>
			<path id="XMLID_451_" style="fill:#37474F;" d="M409.834,160.07c-7.248,4.185-13.125,14.362-13.125,22.731
				c0,8.369,5.875,11.762,13.124,7.577c7.248-4.185,13.124-14.362,13.125-22.731C422.958,159.277,417.083,155.885,409.834,160.07z"
				/>
		</g>
		<g id="XMLID_1431_">
			<g>
				<g id="XMLID_129_">
					<path id="XMLID_138_" style="fill:#FAFAFA;" d="M416.51,178.214l-13.352,7.709c-0.155,0.09-0.281-0.032-0.281-0.27v-11.844
						c0-0.239,0.126-0.505,0.281-0.595l13.352-7.709c0.155-0.089,0.281,0.032,0.281,0.27v11.844
						C416.791,177.857,416.665,178.124,416.51,178.214z"/>
				</g>
				<g id="XMLID_117_">
					<path id="XMLID_118_" style="fill:#FAFAFA;" d="M412.463,168.623c-0.155,0.089-0.281-0.032-0.281-0.27v-1.804l-4.696,2.711
						v1.804c0,0.238-0.126,0.505-0.281,0.595c-0.155,0.089-0.281-0.032-0.281-0.27v-2.237c0-0.239,0.126-0.505,0.281-0.595
						l5.258-3.036c0.155-0.089,0.281,0.032,0.281,0.27v2.237C412.744,168.267,412.618,168.534,412.463,168.623z"/>
				</g>
				<g id="XMLID_109_">
					<path id="XMLID_110_" style="fill:#FAFAFA;" d="M412.463,166.386l-5.258,3.036c-0.155,0.09-0.281-0.032-0.281-0.27v-0.996
						c0-0.239,0.126-0.505,0.281-0.595l5.258-3.036c0.155-0.089,0.281,0.032,0.281,0.27v0.996
						C412.744,166.03,412.618,166.297,412.463,166.386z"/>
				</g>
				<g id="XMLID_105_">
					<path id="XMLID_106_" style="fill:#37474F;" d="M411.743,173.776l-3.818,2.204c-0.113,0.065-0.204-0.023-0.204-0.196v-0.723
						c0-0.173,0.091-0.367,0.204-0.432l3.818-2.204c0.112-0.065,0.204,0.023,0.204,0.196v0.723
						C411.947,173.518,411.855,173.712,411.743,173.776z"/>
				</g>
			</g>
		</g>
	</g>
	<g id="XMLID_379_">
		<g id="XMLID_459_">
			<path id="XMLID_464_" style="fill:#27DEBF;" d="M419.384,110.396l-5.341-3.081c-0.002-0.001-0.005-0.002-0.006-0.003
				l-0.049-0.028l-0.005,0.008c-2.371-1.338-5.625-1.137-9.224,0.94c-7.247,4.185-13.124,14.362-13.124,22.731
				c0,4.178,1.465,7.114,3.832,8.488v0.002l0.011,0.006l0.002,0.001l4.86,2.775l1.161-1.942c1.199-0.276,2.447-0.703,3.764-1.464
				c7.247-4.185,13.124-14.362,13.125-22.731c0-1.243-0.167-2.337-0.412-3.352L419.384,110.396z"/>
			<g id="XMLID_461_">
				<path id="XMLID_463_" style="fill:#263238;" d="M391.638,130.962c0,4.179,1.462,7.114,3.829,8.487v0.005l0.015,0.005
					l4.861,2.776l1.161-1.941c1.195-0.277,2.445-0.706,3.764-1.467c3.878-2.238,7.366-6.2,9.767-10.675L396,117.164
					C393.322,121.482,391.638,126.481,391.638,130.962z"/>
				<path id="XMLID_462_" style="fill:#455A64;" d="M419.386,110.396l-5.34-3.083c0,0-0.005,0-0.01,0l-0.049-0.03l-0.005,0.01
					c-2.371-1.339-5.622-1.141-9.223,0.938c-3.369,1.941-6.442,5.182-8.759,8.932l19.034,10.987
					c2.09-3.888,3.359-8.166,3.359-12.054c0-1.245-0.168-2.337-0.415-3.354L419.386,110.396z"/>
			</g>
			<path id="XMLID_460_" style="fill:#37474F;" d="M409.834,111.143c-7.248,4.185-13.125,14.362-13.125,22.731
				c0,8.369,5.875,11.762,13.124,7.577c7.248-4.185,13.124-14.362,13.125-22.731C422.958,110.35,417.083,106.958,409.834,111.143z"
				/>
		</g>
		<g id="XMLID_444_">
			<path id="XMLID_448_" style="fill:#FFFFFF;" d="M405.023,124.462c0-1.904,1.002-4.026,2.239-4.74
				c1.237-0.714,2.239,0.251,2.239,2.154c0,1.904-1.002,4.026-2.239,4.74C406.026,127.33,405.023,126.365,405.023,124.462z"/>
			<path id="XMLID_447_" style="fill:#FFFFFF;" d="M411.241,134.064l-8.23,4.751l0.439-5.473c0.187-2.337,1.42-4.717,2.88-5.56
				l1.592-0.919c1.46-0.843,2.693,0.114,2.88,2.235L411.241,134.064z"/>
			<path id="XMLID_446_" style="fill:#FFFFFF;" d="M410.438,118.753c0-1.904,1.002-4.026,2.239-4.74
				c1.236-0.714,2.239,0.251,2.239,2.155s-1.002,4.026-2.239,4.74C411.441,121.622,410.438,120.657,410.438,118.753z"/>
			<path id="XMLID_445_" style="fill:#FFFFFF;" d="M416.657,128.354l-5.049,2.915l-0.23-2.62c-0.163-1.84-0.993-2.95-2.102-3.033
				c0.516-1.58,1.435-2.944,2.47-3.541l1.591-0.919c1.461-0.843,2.694,0.112,2.881,2.233L416.657,128.354z"/>
		</g>
	</g>
</g>
<g id="Magnifying_glass_1_">
	<g id="Magnifying_glass">
		<g id="XMLID_241_">
			<path id="XMLID_296_" style="fill:#27DEBF;" d="M282.498,314.823c0-6.203-4.099-12.405-12.295-17.138
				c-16.394-9.465-42.973-9.465-59.367,0c-8.197,4.732-12.295,10.935-12.295,17.137l0,0v11.426c0,6.202,4.098,12.405,12.295,17.137
				c16.394,9.465,42.973,9.465,59.367,0c8.197-4.732,12.295-10.935,12.295-17.137V314.823L282.498,314.823z M212.866,301.201
				c7.321-4.227,17.142-6.555,27.653-6.555c10.512,0,20.333,2.328,27.653,6.555c6.62,3.822,10.265,8.66,10.265,13.622
				c0,4.962-3.646,9.799-10.265,13.621c-7.321,4.227-17.142,6.555-27.653,6.555c-10.511,0-20.332-2.328-27.653-6.555
				c-6.619-3.822-10.265-8.659-10.265-13.621C202.601,309.86,206.246,305.022,212.866,301.201z"/>
			<path id="XMLID_293_" style="opacity:0.3;fill:#FFFFFF;" d="M210.833,331.96c16.393,9.465,42.972,9.465,59.367,0
				c16.394-9.465,16.394-24.81,0-34.275c-16.394-9.465-42.973-9.465-59.366,0C194.44,307.15,194.44,322.496,210.833,331.96z
				 M202.598,314.823c0-4.962,3.645-9.8,10.265-13.622c7.321-4.227,17.142-6.555,27.653-6.555c10.512,0,20.332,2.328,27.653,6.555
				c6.62,3.822,10.265,8.66,10.265,13.622c0,4.962-3.646,9.799-10.265,13.621c-7.322,4.227-17.143,6.555-27.653,6.555
				c-10.512,0-20.333-2.328-27.653-6.555C206.244,324.622,202.598,319.785,202.598,314.823z"/>
			<g id="XMLID_290_">
				<path id="XMLID_292_" style="fill:#27DEBF;" d="M202.595,314.822c0,1.949,0.56,3.865,1.64,5.716
					c1.664-2.882,4.595-5.586,8.631-7.908c7.316-4.23,17.14-6.56,27.655-6.56c10.506,0,20.331,2.33,27.647,6.56
					c4.035,2.322,6.966,5.026,8.639,7.908c1.072-1.851,1.632-3.767,1.632-5.716c0-4.961-3.646-9.8-10.271-13.624
					c-7.316-4.222-17.14-6.552-27.647-6.552c-10.514,0-20.339,2.33-27.655,6.552C206.241,305.022,202.595,309.861,202.595,314.822z"
					/>
				<path id="XMLID_291_" style="opacity:0.1;" d="M202.595,314.822c0,1.949,0.56,3.865,1.64,5.716
					c1.664-2.882,4.595-5.586,8.631-7.908c7.316-4.23,17.14-6.56,27.655-6.56c10.506,0,20.331,2.33,27.647,6.56
					c4.035,2.322,6.966,5.026,8.639,7.908c1.072-1.851,1.632-3.767,1.632-5.716c0-4.961-3.646-9.8-10.271-13.624
					c-7.316-4.222-17.14-6.552-27.647-6.552c-10.514,0-20.339,2.33-27.655,6.552C206.241,305.022,202.595,309.861,202.595,314.822z"
					/>
			</g>
			<path id="XMLID_268_" style="opacity:0.4;fill:#FFFFFF;" d="M212.863,306.374c7.321-4.227,17.142-6.555,27.653-6.555
				c10.512,0,20.332,2.328,27.653,6.555c5.462,3.153,8.892,6.999,9.927,11.035c-1.035,4.036-4.466,7.882-9.927,11.035
				c-7.322,4.227-17.143,6.555-27.653,6.555c-10.512,0-20.333-2.328-27.653-6.555c-5.462-3.154-8.892-6.999-9.928-11.035
				C203.971,313.373,207.401,309.527,212.863,306.374z"/>
			<path id="XMLID_267_" style="opacity:0.1;" d="M230.626,338.384V349.8c-7.251-1.007-14.128-3.142-19.787-6.414
				c-8.2-4.734-12.301-10.937-12.301-17.14v-11.424c0-1.251,0.17-2.501,0.503-3.743h0.008c-1.989,7.38,1.941,15.191,11.789,20.883
				C216.498,335.234,223.375,337.369,230.626,338.384z"/>
		</g>
		<g id="XMLID_404_">
			<g id="XMLID_384_">
				<path id="XMLID_386_" style="fill:#37474F;" d="M212.084,339.233c0.008-1.876-1.3-4.162-2.92-5.106
					c-0.806-0.47-1.537-0.518-2.07-0.218l-0.001-0.001l-0.007,0.004l-0.002,0.001l-14.13,8.065c-0.003,0.002-0.006,0.004-0.01,0.005
					l-0.003,0.002l0,0c-0.529,0.307-0.858,0.962-0.862,1.895c-0.008,1.876,1.3,4.162,2.92,5.106c0.811,0.472,1.546,0.52,2.079,0.214
					l0,0l14.129-8.063l-0.001-0.001C211.744,340.834,212.08,340.176,212.084,339.233z"/>
				<path id="XMLID_385_" style="fill:#263238;" d="M211.206,341.137c0.538-0.303,0.874-0.961,0.877-1.904
					c0.003-0.707-0.182-1.472-0.499-2.202l-18.222,10.421c0.467,0.638,1.029,1.18,1.636,1.533c0.811,0.472,1.546,0.52,2.079,0.214
					l14.129-8.063L211.206,341.137z"/>
			</g>
			<path id="XMLID_403_" style="fill:#27DEBF;" d="M197.383,348.946c0.01-2.441-1.692-5.417-3.801-6.646
				c-1.034-0.603-1.971-0.667-2.661-0.295L190.918,342l-0.04,0.021c-0.001,0-0.002,0.001-0.003,0.001l-46.863,25.028l6.992,12.357
				l45.241-27.985C196.944,351.026,197.378,350.169,197.383,348.946z"/>
			<path id="XMLID_405_" style="opacity:0.1;" d="M151.005,379.407l45.241-27.985c0.697-0.396,1.132-1.253,1.137-2.476
				c0.005-1.311-0.492-2.768-1.272-4.033L147.4,373.036L151.005,379.407z"/>
			<g id="XMLID_407_">
				<path id="XMLID_408_" style="fill:#27DEBF;" d="M147.471,379.036c-2.766-1.61-4.998-5.513-4.985-8.716
					c0.013-3.203,2.266-4.493,5.032-2.881c2.766,1.612,4.998,5.514,4.985,8.716C152.49,379.356,150.238,380.646,147.471,379.036z"/>
			</g>
			<g id="XMLID_387_" style="opacity:0.2;">
				<path id="XMLID_388_" d="M147.471,379.036c-2.766-1.61-4.998-5.513-4.985-8.716c0.013-3.203,2.266-4.493,5.032-2.881
					c2.766,1.612,4.998,5.514,4.985,8.716C152.49,379.356,150.238,380.646,147.471,379.036z"/>
			</g>
		</g>
	</g>
</g>
<g id="Character_1_">
	<g id="Character">
		<g id="XMLID_2444_">
			<path id="XMLID_2445_" style="fill:#FFA8A7;" d="M423.732,268.562c0.512-19.019-1.013-23.577-6.076-27.062l-1.962,11.021
				c0,0,2.307,12.987,2.059,17.312c-0.217,3.8-0.587,8.554-1.486,11.626c-0.159,0.544-0.527,1.002-1.007,1.303
				c-1.29,0.807-1.81,1.635-2.78,2.651c-0.76,0.796-1.408,0.994-1.308,1.247c0.129,0.325,0.671,0.852,1.603,0.568
				c0.469-0.143,1.074-0.51,1.829-0.992c0,0-0.54,1.584-1.874,3.22c-1.808,2.217-1.887,3.578,1.763,3.61
				c2.288,0.02,4.113-1.391,5.834-6.431c0.496-1.452,1.272-3.745,1.608-5.66C422.81,275.988,423.65,271.624,423.732,268.562z"/>
		</g>
		<path id="XMLID_2545_" style="fill:#27DEBF;" d="M413.395,240.056c2.417-0.35,5.702,0.156,7.825,3.952s2.642,10.324,2.884,16.817
			c0,0-4.216,3.525-9.272,1.792L413.395,240.056z"/>
		<g id="XMLID_2569_">
			<g id="XMLID_2623_">
				<g id="XMLID_2641_">
					<path id="XMLID_2701_" style="fill:#263238;" d="M420.506,344.664c0.384,0.145,0.481,0.876,0.539,2.33
						c0.044,1.1,0.279,3.02-1.009,3.403c-1.288,0.383-3.176,0.188-4.001-0.849c-1.031-1.294-1.727-2.433-3.198-4.012
						c-1.276-1.369-2.656-2.648-3.171-4.569c-0.465-1.736-0.078-2.489,1.106-2.993c1.628-0.694,4.186,1.574,5.462,1.931
						C417.335,340.212,420.122,344.519,420.506,344.664z"/>
				</g>
				<g id="XMLID_2640_">
					<path id="XMLID_2699_" style="fill:#FFA8A7;" d="M420.506,343.318v1.785c0,0-1.856,1.426-4.51,0.122
						c-0.078-0.172-0.468-2.553-0.468-2.553L420.506,343.318z"/>
				</g>
				<g id="XMLID_2627_">
					<path id="XMLID_2697_" style="fill:#263238;" d="M406.053,354.949c0,0,0.512,1.552,0.788,2.909
						c0.219,1.079,0.534,2.882,0.156,3.694c-0.378,0.812-1.852,1.335-4.137,1.318c-1.48-0.011-3.786,0.994-5.365,1.875
						c-1.631,0.91-5.023,1.272-6.748,1.07c-2.033-0.239-4.139-1.417-4.468-2.259c-0.329-0.842,0.108-1.716,4.899-3.757
						c0.044-0.019,6.66-2.17,8.978-4.728L406.053,354.949z"/>
				</g>
				<g id="XMLID_2626_">
					<path id="XMLID_2681_" style="fill:#FFA8A7;" d="M406.053,353.02c0,0-0.007,1.324,0,2.081c0.007,0.757-0.887,1.885-3.201,1.802
						c-1.625-0.058-2.76-0.495-2.695-1.833v-1.929L406.053,353.02z"/>
				</g>
				<g id="XMLID_2625_">
					<path id="XMLID_2679_" style="fill:#37474F;" d="M421.667,319.635c-0.817-5.831-2.107-9.295-2.107-9.295
						s0.637-8.019,0.943-15.622c0.33-8.212-0.018-18.536,0.139-20.584c0,0-26.501-5.362-26.973,4.132
						c-0.473,9.494,1.046,33.66,1.359,37.831c0.313,4.171,1.034,7.859,1.896,14.619c0.85,6.671,3.234,22.426,3.234,22.426
						c3.027,1.636,5.896-0.121,5.896-0.121s1.865-18.983,1.669-23.795c-0.239-5.876-1.825-10.504-1.825-10.504
						s0.503-7.828,0.946-14.637c0.444-6.809,0.914-10.079,1.016-13.041l0.57-0.283c0,0,0.581,11.747,0.894,15.917
						c0.313,4.171,0.977,8.169,2.183,15.916c1.047,6.72,4.164,20.939,4.164,20.939c3.027,1.637,4.834-0.214,4.834-0.214
						S422.484,325.466,421.667,319.635z"/>
				</g>
				<g id="XMLID_2624_">
					<path id="XMLID_2677_" style="fill:#263238;" d="M407.861,291.043c0,0,6.429-3.168,9.646-6.025c0,0-2.988,4.21-6.909,6.076
						c0,0-1.395,14.592-1.388,14.303l-0.805-14.375L407.861,291.043z"/>
				</g>
			</g>
			<g id="XMLID_2620_">
				<g id="XMLID_2621_">
					<polygon id="XMLID_2674_" style="fill:#FFA8A7;" points="402.139,237.049 403.707,245.68 411.503,245.111 409.866,235.327 
											"/>
				</g>
			</g>
			<g id="XMLID_2618_">
				<g id="XMLID_2619_">
					<path id="XMLID_2671_" style="fill:#F5F5F5;" d="M419.736,244.48c-0.772-2.347-3.749-4.901-6.728-4.347
						c-5.473,1.017-9.814,2.104-13.047,3.258c-2.727,0.974-5.212,3.332-5.438,12.303c0,0-0.914,20.916-0.93,24.961
						c6.849,2.71,13.972,2.627,17.909,1.767c8.196-1.791,9.185-5.191,9.185-5.191s0.106-15.04-0.14-21.536
						C420.339,250.175,420.267,246.092,419.736,244.48z"/>
				</g>
			</g>
			<g id="XMLID_2615_">
				<g id="XMLID_2617_">
					<path id="XMLID_2667_" style="fill:#FFA8A7;" d="M396.124,226.551c0,0-1.977,3.152-1.737,3.452
						c0.24,0.3,1.753,0.541,1.753,0.541L396.124,226.551z"/>
				</g>
				<g id="XMLID_2616_">
					<path id="XMLID_2665_" style="fill:#FFA8A7;" d="M401.614,217.831c-4.122,0.967-5.277,2.815-5.52,9.404
						c-0.253,6.885,0.498,9.03,1.422,9.936c0.624,0.611,4.015,0.648,5.714,0.138c2.126-0.638,6.922-2.46,9.109-5.97
						c2.572-4.129,3.147-9.66,0.245-11.857C408.499,216.388,403.292,217.438,401.614,217.831z"/>
				</g>
			</g>
			<g id="XMLID_2588_">
				<g id="XMLID_2613_">
					<g id="XMLID_2614_">
						<path id="XMLID_2662_" style="fill:#263238;" d="M396.139,219.545c1.21,2.071,3.836,3.062,3.836,3.062
							c0.79,0.901,0.355,4.413,1.746,4.97c0,0,0.598-2.556,2.747-2.285c2.163,0.273,2.516,3.015,1.195,4.715
							c-1.322,1.7-2.602,1.089-2.602,1.089s0.148,3.631,1.804,5.652c0,0,1.845,0.552,5.198-0.242c2.06-0.488,4.93-3.142,6.1-5.911
							c2.473-5.856,2.538-11.077-1.199-12.557c-0.46-2.663-2.591-3.813-5.001-4.31c-5.188-1.069-8.533,2.169-12.527,1.887
							C395.149,215.454,394.722,217.118,396.139,219.545z"/>
					</g>
				</g>
				<g id="XMLID_2591_">
					<g id="XMLID_2612_">
						<path id="XMLID_2659_" style="fill:#263238;" d="M415.048,218.93l2.446-1.517c-0.419-0.675-1.306-0.883-1.981-0.464
							C414.837,217.368,414.629,218.255,415.048,218.93z"/>
					</g>
				</g>
			</g>
		</g>
		<path id="XMLID_1769_" style="fill:#FFA8A7;" d="M366.996,258.927c1.283,0.57,16.387,11.733,18.742,10.433
			c2.355-1.3,14.437-15.416,14.437-15.416c3.509-5.813,0-10.589,0-10.589s-3.875,0.716-5.9,3.781
			c-2.025,3.064-10.782,14.046-10.782,14.046c-2.163-1.082-4.318-2.18-6.466-3.292c-1.77-0.916-3.543-1.832-5.276-2.817
			c-0.432-0.246-1.003-0.485-1.362-0.84c-0.854-0.845-0.708-2.889-0.692-4c0.007-0.52,0.015-1.04,0.075-1.557
			c0.074-0.635,0.195-2.189-0.948-1.696c-0.22,0.095-0.399,0.268-0.546,0.459c-0.18,0.234-0.319,0.499-0.409,0.779
			c-0.215,0.672-0.146,1.407-0.344,2.085c-0.029,0.099-0.066,0.2-0.141,0.271c-0.094,0.089-0.232,0.115-0.361,0.111
			c-1.665-0.05-3.24-2.383-4.004-3.621c-0.34-0.552-0.675-1.165-1.263-1.44c-0.911-0.426-2.005,0.184-2.591,1.001
			c-0.748,1.041-0.972,2.394-0.825,3.667c0.205,1.765,0.882,3.398,2.17,4.599C362.464,256.712,364.585,257.855,366.996,258.927z"/>
		<path id="XMLID_1766_" style="fill:#27DEBF;" d="M401.525,242.899c-1.666,0.192-4.001-0.117-7.265,3.388
			c-3.264,3.505-7.345,9.452-7.345,9.452s1.134,5.684,7.305,6.877c0,0,5.715-5.856,7.305-9.08S403.487,245.075,401.525,242.899z"/>
	</g>
</g>
</svg>
