<?xml version="1.0" encoding="utf-8"?>
<!-- Generator: Adobe Illustrator 27.5.0, SVG Export Plug-In . SVG Version: 6.00 Build 0)  -->
<svg version="1.1" xmlns="http://www.w3.org/2000/svg" xmlns:xlink="http://www.w3.org/1999/xlink" x="0px" y="0px"
	 viewBox="0 0 500 500" style="enable-background:new 0 0 500 500;" xml:space="preserve">
<g id="Background_Simple">
	<g>
		<path style="fill:#92E3A9;" d="M327.833,53.062c0,0-79.342-31.17-155.222,12.821C96.731,109.874,60.279,200.385,28.834,272.824
			c-31.445,72.44-10.206,147.607,49.578,183.277c59.784,35.67,98.467-13.379,180.987-13.52c82.52-0.141,105.06,12.726,172.29-33.764
			c67.23-46.49,76.547-160.451,20.216-246.535C395.574,76.198,327.833,53.062,327.833,53.062z"/>
		<path style="opacity:0.7;fill:#FFFFFF;" d="M327.833,53.062c0,0-79.342-31.17-155.222,12.821
			C96.731,109.874,60.279,200.385,28.834,272.824c-31.445,72.44-10.206,147.607,49.578,183.277
			c59.784,35.67,98.467-13.379,180.987-13.52c82.52-0.141,105.06,12.726,172.29-33.764c67.23-46.49,76.547-160.451,20.216-246.535
			C395.574,76.198,327.833,53.062,327.833,53.062z"/>
	</g>
</g>
<g id="Floor">
	<line style="fill:none;stroke:#263238;stroke-miterlimit:10;" x1="6.142" y1="461.946" x2="483.185" y2="461.946"/>
</g>
<g id="Plants">
	<g>
		<path style="fill:#263238;" d="M426.64,413.78c1.936,0.491,6.466-0.313,6.469-0.314c0.047-0.008-1.269-2.704-1.373-2.864
			c-1.201-1.848-4.691-4.664-7.22-3.933c-1.822,0.527-2.666,2.462-2.078,4.067C423.039,412.378,424.991,413.362,426.64,413.78z"/>
		<path style="fill:#263238;" d="M454.85,460.984c0.029,0.097,0.054,0.188,0.082,0.284l1.766,0.386
			c-0.119-0.384-0.241-0.774-0.369-1.174c-0.36-1.136-0.769-2.341-1.202-3.575c0.29-0.162,1.937-1.095,3.373-2.147
			c1.465,1.172,5.023,2.257,5.483,2.394c-0.349,1.163-0.701,2.29-1.05,3.351c-0.238,0.731-0.474,1.43-0.705,2.104l1.716-0.267
			c0.152-0.483,0.305-0.973,0.459-1.483c0.36-1.179,0.721-2.445,1.079-3.747c0.496,0.022,4.557,0.18,6.371-0.51
			c1.645-0.627,3.589-1.858,4.178-3.574c0.577-1.679-0.282-3.506-2.107-3.802c-2.533-0.411-6,2.846-7.188,4.845
			c-0.07,0.118-0.688,1.471-1.063,2.329c0.143-0.533,0.289-1.049,0.429-1.598c0.287-1.086,0.539-2.175,0.815-3.346
			c0.113-0.569,0.228-1.144,0.343-1.724c0.127-0.574,0.186-1.192,0.284-1.793c0.195-1.397,0.323-2.818,0.419-4.25
			c0.968,0.181,4.42,0.779,6.137,0.393c1.709-0.383,3.805-1.326,4.65-2.951c0.828-1.591,0.274-3.541-1.467-4.104
			c-2.416-0.782-6.321,1.958-7.797,3.778c-0.092,0.113-1.007,1.526-1.494,2.31c0.051-0.861,0.106-1.72,0.128-2.59
			c0.065-2.514,0.05-5.055,0.047-7.591c-0.001-0.777,0.007-1.551,0.012-2.327c0.344,0.068,4.424,0.865,6.347,0.434
			c1.709-0.383,3.805-1.326,4.65-2.951c0.828-1.591,0.274-3.54-1.467-4.104c-2.416-0.782-6.321,1.958-7.797,3.778
			c-0.111,0.137-1.424,2.171-1.733,2.702c0.012-1.708,0.04-3.41,0.139-5.091c0.132-2.319,0.395-4.597,0.816-6.794
			c0.16,0.032,4.414,0.882,6.384,0.441c1.709-0.384,3.805-1.327,4.65-2.951c0.828-1.591,0.274-3.54-1.467-4.104
			c-2.416-0.782-6.321,1.958-7.797,3.778c-0.116,0.143-1.527,2.332-1.755,2.744c0.026-0.131,0.037-0.268,0.064-0.398
			c0.48-2.343,1.246-4.572,2.067-6.631c0.475-1.197,0.996-2.32,1.527-3.403c0.771,0.238,4.307,1.288,6.113,1.078
			c1.73-0.202,3.907-0.922,4.925-2.458c0.998-1.504,0.673-3.514-0.981-4.263c-2.296-1.04-6.462,1.286-8.126,2.95
			c-0.09,0.09-0.911,1.103-1.498,1.848c0.247-0.486,0.493-0.991,0.74-1.452c0.921-1.734,1.871-3.273,2.724-4.63
			c0.491-0.768,0.95-1.454,1.387-2.093c0.906-0.156,4.555-0.832,6.081-1.802c1.489-0.947,3.139-2.539,3.341-4.314
			c0.197-1.738-1.059-3.319-2.931-3.223c-2.599,0.133-5.307,3.994-6.038,6.167c-0.063,0.188-0.709,3.215-0.662,3.207
			c0,0,0.044-0.007,0.055-0.009c-0.432,0.607-0.888,1.261-1.373,1.986c-0.884,1.344-1.87,2.869-2.832,4.592
			c-0.966,1.72-1.968,3.612-2.842,5.686c-0.88,2.078-1.697,4.301-2.24,6.679c-0.006,0.027-0.009,0.055-0.015,0.082
			c-0.061-0.73-0.304-2.762-0.341-2.914c-0.523-2.155-2.862-5.941-5.453-5.998c-1.865-0.04-3.276,1.58-3.246,3.315
			c0.031,1.772,1.53,3.316,2.93,4.221c1.579,1.02,5.73,1.6,6.061,1.646c-0.496,2.268-0.817,4.623-1.008,7.015
			c-0.11,1.368-0.177,2.746-0.227,4.128c-0.074-0.629-0.146-1.19-0.165-1.266c-0.523-2.155-2.862-5.941-5.453-5.998
			c-1.866-0.041-3.276,1.58-3.246,3.314c0.03,1.772,1.53,3.317,2.93,4.221c1.421,0.917,4.945,1.482,5.881,1.619
			c-0.013,0.53-0.033,1.06-0.044,1.589c-0.054,2.542-0.096,5.079-0.217,7.57c-0.042,0.878-0.116,1.743-0.188,2.608
			c-0.066-0.557-0.128-1.027-0.144-1.097c-0.523-2.155-2.863-5.941-5.452-5.998c-1.866-0.04-3.276,1.58-3.246,3.315
			c0.03,1.771,1.53,3.317,2.93,4.221c1.355,0.876,4.602,1.426,5.713,1.594c-0.101,0.886-0.2,1.773-0.339,2.63
			c-0.108,0.584-0.171,1.15-0.313,1.733c-0.128,0.578-0.255,1.152-0.381,1.719c-0.284,1.086-0.568,2.209-0.871,3.263
			c-0.205,0.735-0.415,1.432-0.624,2.135c0.052-0.874,0.117-2.585,0.106-2.728c-0.116-1.479-0.907-3.791-2.165-5.308
			c-0.016-0.219-0.051-0.434-0.109-0.644c-0.458-1.652-2.246-2.654-3.999-1.913c-2.433,1.028-3.585,5.489-3.476,7.724
			c0.006,0.132,0.242,1.545,0.406,2.433c-0.18-0.503-0.348-0.993-0.539-1.508c-0.371-1.021-0.774-2.028-1.202-3.114
			c-0.226-0.516-0.455-1.036-0.686-1.563c-0.217-0.527-0.518-1.053-0.776-1.586c-0.628-1.222-1.328-2.427-2.061-3.624
			c0.945-0.373,4.282-1.743,5.552-2.971c1.265-1.221,2.547-3.098,2.354-4.85c-0.19-1.716-1.782-2.979-3.615-2.498
			c-2.544,0.668-4.371,4.95-4.614,7.196c-0.015,0.14-0.003,1.759,0.021,2.648c-0.447-0.716-0.889-1.433-1.367-2.141
			c-1.378-2.046-2.84-4.07-4.291-6.097c-0.444-0.621-0.879-1.244-1.317-1.867c0.338-0.13,4.335-1.677,5.759-3.052
			c1.265-1.221,2.547-3.098,2.353-4.85c-0.189-1.715-1.783-2.979-3.615-2.497c-2.544,0.668-4.371,4.95-4.614,7.196
			c-0.018,0.169,0.002,2.499,0.037,3.089c-0.964-1.372-1.91-2.749-2.785-4.146c-1.209-1.927-2.28-3.888-3.168-5.872
			c0.158-0.06,4.336-1.658,5.794-3.066c1.265-1.221,2.547-3.098,2.353-4.85c-0.189-1.716-1.782-2.978-3.615-2.497
			c-2.544,0.668-4.371,4.95-4.614,7.196c-0.019,0.176,0.004,2.683,0.042,3.135c-0.053-0.118-0.121-0.234-0.172-0.352
			c-0.919-2.132-1.526-4.325-1.988-6.411c-0.271-1.211-0.459-2.389-0.615-3.539c0.805-0.222,4.475-1.275,5.922-2.41
			c1.388-1.088,2.866-2.829,2.874-4.603c0.008-1.737-1.422-3.171-3.285-2.885c-2.587,0.397-4.877,4.488-5.372,6.71
			c-0.027,0.121-0.162,1.37-0.247,2.28c-0.062-0.521-0.137-1.057-0.186-1.558c-0.19-1.88-0.243-3.62-0.277-5.162
			c-0.012-0.878-0.005-1.672,0.01-2.416c0.697-0.611,3.48-3.104,4.251-4.698c0.752-1.555,1.277-3.711,0.439-5.239
			c-0.821-1.496-2.814-2.088-4.384-1.009c-2.181,1.498-2.328,6.036-1.723,8.166c0.053,0.184,1.219,2.951,1.256,2.919
			c0,0,0.034-0.03,0.042-0.037c-0.029,0.716-0.052,1.485-0.059,2.323c-0.001,1.548,0.013,3.296,0.161,5.19
			c0.143,1.893,0.353,3.943,0.777,6.07c0.422,2.133,0.98,4.349,1.866,6.542c0.01,0.025,0.024,0.049,0.034,0.074
			c-0.47-0.551-1.841-2.046-1.96-2.148c-1.684-1.444-5.875-3.219-8.156-1.878c-1.643,0.966-1.943,3.017-0.927,4.389
			c1.038,1.401,3.221,1.834,4.952,1.808c1.953-0.03,5.889-1.788,6.201-1.929c0.864,2.08,1.929,4.136,3.129,6.151
			c0.684,1.153,1.413,2.292,2.158,3.424c-0.423-0.463-0.805-0.873-0.865-0.925c-1.684-1.444-5.876-3.219-8.156-1.878
			c-1.644,0.966-1.943,3.017-0.927,4.388c1.037,1.401,3.221,1.834,4.952,1.808c1.757-0.026,5.139-1.462,6.03-1.853
			c0.291,0.431,0.576,0.865,0.869,1.294c1.404,2.063,2.814,4.114,4.132,6.171c0.465,0.725,0.893,1.457,1.326,2.187
			c-0.376-0.411-0.697-0.753-0.752-0.8c-1.684-1.443-5.876-3.22-8.156-1.878c-1.643,0.966-1.943,3.017-0.927,4.389
			c1.038,1.401,3.221,1.834,4.953,1.808c1.677-0.025,4.809-1.324,5.869-1.784c0.418,0.763,0.839,1.526,1.207,2.285
			c0.239,0.525,0.509,1.012,0.717,1.553c0.219,0.532,0.436,1.058,0.65,1.579c0.374,1.02,0.767,2.071,1.106,3.077
			c0.241,0.698,0.457,1.368,0.677,2.042c-0.453-0.727-1.373-2.131-1.464-2.239c-1.421-1.688-5.248-4.076-7.691-3.073
			c-1.76,0.723-2.375,2.725-1.595,4.243c0.796,1.55,2.866,2.304,4.565,2.532c1.871,0.251,5.842-0.861,6.338-1.003
			C454.21,458.859,454.548,459.949,454.85,460.984z"/>
		<path style="fill:#263238;" d="M472.657,407.606c0.042,0.018,0.528-3.028,0.536-3.221c0.092-2.247-1.092-6.561-3.532-7.28
			c-1.758-0.518-3.537,0.71-3.982,2.419c-0.455,1.745,0.544,3.645,1.625,4.891C468.572,405.877,472.654,407.605,472.657,407.606z"/>
	</g>
	<g>
		<path style="fill:#263238;" d="M11.329,434.72c1.106,0.28,3.693-0.179,3.695-0.179c0.027-0.005-0.725-1.544-0.784-1.635
			c-0.686-1.055-2.68-2.664-4.124-2.246c-1.04,0.301-1.523,1.406-1.187,2.323C9.273,433.919,10.387,434.481,11.329,434.72z"/>
		<path style="fill:#263238;" d="M27.441,461.68c0.016,0.055,0.031,0.107,0.047,0.162l1.008,0.22
			c-0.068-0.219-0.138-0.442-0.211-0.671c-0.206-0.649-0.439-1.337-0.686-2.042c0.166-0.093,1.106-0.626,1.926-1.227
			c0.837,0.669,2.869,1.289,3.132,1.367c-0.199,0.664-0.4,1.308-0.6,1.914c-0.136,0.417-0.271,0.817-0.402,1.201l0.98-0.152
			c0.087-0.276,0.174-0.556,0.262-0.847c0.206-0.673,0.412-1.397,0.616-2.14c0.284,0.013,2.603,0.103,3.639-0.291
			c0.939-0.358,2.05-1.061,2.386-2.041c0.329-0.959-0.161-2.002-1.204-2.171c-1.446-0.234-3.427,1.626-4.105,2.767
			c-0.04,0.067-0.393,0.84-0.607,1.331c0.082-0.304,0.165-0.599,0.245-0.913c0.164-0.62,0.308-1.242,0.465-1.911
			c0.065-0.325,0.13-0.653,0.196-0.985c0.072-0.328,0.107-0.681,0.162-1.024c0.111-0.798,0.184-1.609,0.239-2.427
			c0.553,0.104,2.524,0.445,3.505,0.224c0.976-0.219,2.173-0.757,2.656-1.685c0.473-0.909,0.156-2.022-0.838-2.344
			c-1.38-0.447-3.61,1.118-4.453,2.158c-0.053,0.065-0.575,0.871-0.853,1.319c0.029-0.492,0.061-0.982,0.073-1.48
			c0.037-1.435,0.028-2.887,0.027-4.335c-0.001-0.444,0.004-0.886,0.007-1.329c0.196,0.039,2.527,0.494,3.625,0.247
			c0.976-0.219,2.173-0.757,2.656-1.685c0.473-0.908,0.156-2.022-0.838-2.344c-1.38-0.447-3.61,1.118-4.453,2.158
			c-0.063,0.078-0.813,1.24-0.99,1.543c0.007-0.975,0.023-1.947,0.079-2.908c0.076-1.325,0.225-2.625,0.466-3.881
			c0.091,0.018,2.521,0.504,3.646,0.252c0.976-0.219,2.173-0.758,2.656-1.686c0.473-0.909,0.156-2.022-0.838-2.344
			c-1.38-0.447-3.61,1.118-4.453,2.158c-0.066,0.082-0.872,1.332-1.002,1.567c0.015-0.075,0.021-0.153,0.037-0.227
			c0.274-1.338,0.712-2.611,1.181-3.787c0.271-0.684,0.569-1.325,0.872-1.944c0.44,0.136,2.46,0.736,3.491,0.616
			c0.988-0.115,2.231-0.526,2.813-1.404c0.57-0.859,0.384-2.007-0.56-2.435c-1.312-0.594-3.691,0.734-4.641,1.685
			c-0.051,0.051-0.52,0.63-0.856,1.055c0.141-0.277,0.282-0.566,0.423-0.829c0.526-0.99,1.069-1.869,1.556-2.644
			c0.28-0.439,0.542-0.831,0.792-1.195c0.518-0.089,2.602-0.475,3.473-1.029c0.85-0.541,1.793-1.45,1.908-2.464
			c0.112-0.993-0.605-1.896-1.674-1.841c-1.484,0.076-3.031,2.281-3.448,3.522c-0.036,0.107-0.405,1.836-0.378,1.831
			c0,0,0.025-0.004,0.031-0.005c-0.247,0.346-0.507,0.72-0.784,1.134c-0.505,0.767-1.068,1.638-1.618,2.623
			c-0.552,0.982-1.124,2.063-1.623,3.248c-0.502,1.187-0.969,2.457-1.279,3.815c-0.004,0.015-0.005,0.032-0.009,0.047
			c-0.035-0.417-0.174-1.577-0.195-1.664c-0.299-1.23-1.635-3.393-3.114-3.426c-1.065-0.023-1.871,0.902-1.854,1.893
			c0.018,1.012,0.874,1.894,1.674,2.411c0.902,0.582,3.273,0.914,3.461,0.94c-0.283,1.295-0.467,2.64-0.575,4.007
			c-0.063,0.781-0.101,1.569-0.13,2.358c-0.042-0.359-0.083-0.679-0.094-0.723c-0.299-1.231-1.635-3.393-3.114-3.425
			c-1.066-0.023-1.871,0.902-1.854,1.893c0.017,1.012,0.874,1.894,1.673,2.411c0.811,0.524,2.824,0.846,3.359,0.925
			c-0.007,0.303-0.019,0.605-0.025,0.908c-0.031,1.452-0.055,2.9-0.124,4.323c-0.024,0.501-0.066,0.995-0.107,1.49
			c-0.038-0.318-0.073-0.586-0.083-0.626c-0.299-1.231-1.635-3.393-3.114-3.426c-1.066-0.023-1.871,0.902-1.854,1.893
			c0.017,1.012,0.874,1.894,1.674,2.41c0.774,0.5,2.628,0.814,3.263,0.91c-0.058,0.506-0.114,1.013-0.193,1.502
			c-0.062,0.333-0.098,0.657-0.179,0.99c-0.073,0.33-0.146,0.658-0.217,0.982c-0.162,0.621-0.325,1.262-0.498,1.864
			c-0.117,0.42-0.237,0.818-0.356,1.22c0.03-0.499,0.067-1.477,0.061-1.558c-0.066-0.845-0.518-2.165-1.236-3.031
			c-0.009-0.125-0.029-0.248-0.062-0.368c-0.261-0.943-1.283-1.516-2.284-1.093c-1.39,0.587-2.048,3.135-1.985,4.411
			c0.004,0.075,0.138,0.882,0.232,1.389c-0.103-0.287-0.199-0.567-0.308-0.861c-0.212-0.583-0.442-1.158-0.686-1.778
			c-0.129-0.294-0.26-0.592-0.392-0.892c-0.124-0.301-0.296-0.601-0.444-0.906c-0.359-0.698-0.758-1.386-1.177-2.07
			c0.54-0.213,2.445-0.996,3.171-1.697c0.722-0.698,1.454-1.769,1.344-2.77c-0.108-0.98-1.018-1.701-2.065-1.427
			c-1.453,0.381-2.496,2.827-2.635,4.11c-0.008,0.08-0.002,1.005,0.012,1.512c-0.255-0.409-0.508-0.818-0.781-1.223
			c-0.787-1.168-1.622-2.325-2.451-3.482c-0.254-0.354-0.502-0.711-0.752-1.066c0.193-0.074,2.476-0.958,3.289-1.743
			c0.722-0.698,1.454-1.769,1.344-2.77c-0.108-0.98-1.018-1.701-2.065-1.426c-1.453,0.381-2.496,2.827-2.635,4.11
			c-0.01,0.097,0.001,1.427,0.021,1.764c-0.55-0.784-1.091-1.57-1.59-2.368c-0.69-1.1-1.302-2.221-1.81-3.354
			c0.09-0.034,2.476-0.947,3.309-1.751c0.722-0.698,1.454-1.769,1.344-2.77c-0.108-0.98-1.018-1.701-2.065-1.426
			c-1.453,0.381-2.496,2.827-2.635,4.11c-0.011,0.101,0.002,1.532,0.024,1.79c-0.03-0.067-0.069-0.133-0.098-0.201
			c-0.525-1.218-0.872-2.47-1.136-3.662c-0.155-0.692-0.262-1.364-0.351-2.022c0.46-0.127,2.555-0.728,3.382-1.376
			c0.793-0.621,1.637-1.616,1.642-2.629c0.005-0.992-0.812-1.811-1.876-1.648c-1.478,0.227-2.785,2.563-3.068,3.832
			c-0.015,0.069-0.093,0.783-0.141,1.302c-0.035-0.297-0.078-0.604-0.106-0.89c-0.108-1.074-0.139-2.067-0.158-2.948
			c-0.007-0.501-0.003-0.955,0.006-1.38c0.398-0.349,1.988-1.773,2.428-2.683c0.43-0.888,0.729-2.12,0.251-2.992
			c-0.469-0.854-1.607-1.193-2.504-0.576c-1.245,0.856-1.33,3.448-0.984,4.664c0.03,0.105,0.696,1.685,0.717,1.667
			c0,0,0.019-0.017,0.024-0.021c-0.017,0.409-0.029,0.848-0.033,1.327c-0.001,0.884,0.007,1.882,0.092,2.964
			c0.082,1.081,0.202,2.252,0.444,3.467c0.241,1.218,0.56,2.484,1.066,3.736c0.006,0.014,0.014,0.028,0.02,0.042
			c-0.268-0.315-1.051-1.168-1.119-1.227c-0.962-0.824-3.356-1.839-4.658-1.073c-0.938,0.552-1.11,1.723-0.529,2.507
			c0.593,0.8,1.84,1.047,2.828,1.032c1.115-0.017,3.363-1.021,3.542-1.102c0.493,1.188,1.101,2.362,1.787,3.513
			c0.391,0.659,0.807,1.309,1.233,1.955c-0.242-0.264-0.46-0.499-0.494-0.528c-0.962-0.824-3.356-1.839-4.658-1.073
			c-0.939,0.552-1.11,1.723-0.53,2.506c0.592,0.8,1.84,1.048,2.829,1.033c1.004-0.015,2.935-0.835,3.444-1.058
			c0.166,0.246,0.329,0.494,0.496,0.739c0.802,1.178,1.607,2.35,2.36,3.525c0.265,0.414,0.51,0.832,0.757,1.249
			c-0.215-0.235-0.398-0.43-0.429-0.457c-0.962-0.824-3.356-1.839-4.658-1.073c-0.938,0.552-1.11,1.723-0.529,2.507
			c0.593,0.8,1.84,1.047,2.829,1.032c0.958-0.014,2.747-0.756,3.352-1.019c0.239,0.435,0.479,0.871,0.689,1.305
			c0.137,0.3,0.291,0.578,0.41,0.887c0.125,0.304,0.249,0.604,0.371,0.902c0.214,0.583,0.438,1.183,0.631,1.757
			c0.138,0.398,0.261,0.781,0.387,1.166c-0.259-0.415-0.784-1.217-0.836-1.279c-0.812-0.964-2.997-2.328-4.393-1.755
			c-1.005,0.413-1.356,1.556-0.911,2.423c0.455,0.885,1.637,1.316,2.607,1.446c1.069,0.143,3.337-0.492,3.62-0.573
			C27.075,460.466,27.268,461.089,27.441,461.68z"/>
		<path style="fill:#263238;" d="M37.611,431.194c0.024,0.01,0.301-1.729,0.306-1.84c0.053-1.283-0.624-3.747-2.017-4.158
			c-1.004-0.296-2.02,0.406-2.274,1.382c-0.26,0.997,0.311,2.082,0.928,2.793C35.278,430.207,37.609,431.193,37.611,431.194z"/>
	</g>
</g>
<g id="Graphics">
	<g>
		
			<ellipse transform="matrix(0.8281 -0.5606 0.5606 0.8281 -62.9651 45.5967)" style="fill:none;stroke:#263238;stroke-miterlimit:10;" cx="42.857" cy="125.455" rx="16.224" ry="16.224"/>
		<path style="fill:none;stroke:#263238;stroke-miterlimit:10;" d="M48.607,123.607c0,3.176-2.574,5.75-5.75,5.75
			c-3.176,0-5.75-2.575-5.75-5.75c0-3.176,2.574-5.75,5.75-5.75C46.033,117.856,48.607,120.431,48.607,123.607z"/>
		<path style="fill:none;stroke:#263238;stroke-miterlimit:10;" d="M42.857,141.679c3.668,0,7.039-1.231,9.757-3.284
			c-0.783-4.687-4.847-8.263-9.757-8.263s-8.974,3.576-9.757,8.263C35.818,140.448,39.189,141.679,42.857,141.679z"/>
	</g>
	<g>
		<circle style="fill:none;stroke:#263238;stroke-miterlimit:10;" cx="42.857" cy="166.187" r="16.224"/>
		<path style="fill:none;stroke:#263238;stroke-miterlimit:10;" d="M48.607,164.338c0,3.176-2.574,5.75-5.75,5.75
			c-3.176,0-5.75-2.574-5.75-5.75c0-3.176,2.574-5.75,5.75-5.75C46.033,158.588,48.607,161.163,48.607,164.338z"/>
		<path style="fill:none;stroke:#263238;stroke-miterlimit:10;" d="M42.857,182.411c3.668,0,7.039-1.232,9.757-3.284
			c-0.783-4.687-4.847-8.263-9.757-8.263s-8.974,3.576-9.757,8.263C35.818,181.179,39.189,182.411,42.857,182.411z"/>
	</g>
	<g>
		<circle style="fill:none;stroke:#263238;stroke-miterlimit:10;" cx="42.857" cy="206.919" r="16.224"/>
		<path style="fill:none;stroke:#263238;stroke-miterlimit:10;" d="M48.607,205.07c0,3.176-2.574,5.75-5.75,5.75
			c-3.176,0-5.75-2.574-5.75-5.75c0-3.176,2.574-5.75,5.75-5.75C46.033,199.32,48.607,201.894,48.607,205.07z"/>
		<path style="fill:none;stroke:#263238;stroke-miterlimit:10;" d="M42.857,223.143c3.668,0,7.039-1.231,9.757-3.284
			c-0.783-4.687-4.847-8.263-9.757-8.263s-8.974,3.576-9.757,8.263C35.818,221.911,39.189,223.143,42.857,223.143z"/>
	</g>
	<g>
		
			<ellipse transform="matrix(0.8281 -0.5606 0.5606 0.8281 -131.4713 66.6061)" style="fill:none;stroke:#263238;stroke-miterlimit:10;" cx="42.857" cy="247.65" rx="16.224" ry="16.224"/>
		<path style="fill:none;stroke:#263238;stroke-miterlimit:10;" d="M48.607,245.802c0,3.176-2.574,5.75-5.75,5.75
			c-3.176,0-5.75-2.575-5.75-5.75c0-3.176,2.574-5.75,5.75-5.75C46.033,240.052,48.607,242.626,48.607,245.802z"/>
		<path style="fill:none;stroke:#263238;stroke-miterlimit:10;" d="M42.857,263.874c3.668,0,7.039-1.231,9.757-3.284
			c-0.783-4.687-4.847-8.263-9.757-8.263s-8.974,3.576-9.757,8.263C35.818,262.643,39.189,263.874,42.857,263.874z"/>
	</g>
	<g>
		<g>
			<rect x="390.088" y="91.384" style="fill:none;stroke:#263238;stroke-miterlimit:10;" width="69.444" height="4.674"/>
			<rect x="390.088" y="100.732" style="fill:none;stroke:#263238;stroke-miterlimit:10;" width="34.368" height="4.674"/>
			<rect x="390.088" y="110.08" style="fill:none;stroke:#263238;stroke-miterlimit:10;" width="46.958" height="4.674"/>
			<rect x="390.088" y="119.429" style="fill:none;stroke:#263238;stroke-miterlimit:10;" width="28.969" height="4.674"/>
			<rect x="390.088" y="128.777" style="fill:none;stroke:#263238;stroke-miterlimit:10;" width="53.193" height="4.674"/>
			<rect x="390.088" y="138.125" style="fill:none;stroke:#263238;stroke-miterlimit:10;" width="36.926" height="4.674"/>
			<rect x="390.088" y="147.473" style="fill:none;stroke:#263238;stroke-miterlimit:10;" width="41.423" height="4.674"/>
		</g>
		<line style="fill:none;stroke:#263238;stroke-miterlimit:10;" x1="390.698" y1="82.502" x2="425.638" y2="82.502"/>
		<line style="fill:none;stroke:#263238;stroke-miterlimit:10;" x1="390.698" y1="76.621" x2="425.638" y2="76.621"/>
	</g>
	<g>
		<polyline style="fill:none;stroke:#263238;stroke-miterlimit:10;" points="168.143,102.963 207.64,34.603 217.261,34.603 		"/>
		<g>
			<line style="fill:none;stroke:#263238;stroke-miterlimit:10;" x1="226.375" y1="35.109" x2="250.681" y2="35.109"/>
			<line style="fill:none;stroke:#263238;stroke-miterlimit:10;" x1="226.375" y1="41.186" x2="250.681" y2="41.186"/>
			<line style="fill:none;stroke:#263238;stroke-miterlimit:10;" x1="226.375" y1="47.262" x2="250.681" y2="47.262"/>
		</g>
	</g>
</g>
<g id="Character_2">
	<g>
		<path style="fill:#263238;stroke:#263238;stroke-miterlimit:10;" d="M399.682,203.4c0,0-10.026,1.862-12.031,7.161
			c-2.005,5.299,1.003,6.731,1.003,6.731s-8.164,4.44-6.588,9.596c1.576,5.156,7.304,7.734,7.304,7.734s2.292,1.576,1.862,2.578
			c-0.43,1.003-1.862,0.716-1.862,0.716s2.864,2.721,7.161,3.724c4.297,1.003,11.171,2.292,17.187,1.003
			c6.015-1.289,10.598-4.154,10.598-4.154s-4.01,0.286-2.292-2.435c1.719-2.721,8.737-3.867,7.877-11.887
			c-0.859-8.021-3.294-7.018-5.156-10.455c-1.862-3.437,0.573-5.872-5.156-9.882c-5.729-4.01-15.755-7.018-18.905-5.872
			C397.533,199.104,399.682,203.4,399.682,203.4z"/>
		<g>
			<path style="fill:#92E3A9;stroke:#263238;stroke-miterlimit:10;" d="M381.206,294.49c0,0-10.339,13.197-11.798,32.163
				c-1.459,18.965,11.995,59.489,12.319,61.11c0.324,1.621,1.783,15.885,6.97,27.719c5.187,11.833,8.591,29.826,8.591,29.826
				s-0.81,3.728-0.81,4.214c0,0.486-6.646,6.808-8.915,8.105c-2.269,1.297-7.132,1.783-6.97,4.052
				c0.162,2.269,11.023,2.593,14.589,2.431c3.566-0.162,11.671-1.297,12.806-1.297c1.135,0,6.322,0.324,6.16-2.918
				c-0.162-3.242-4.566-17.02-4.566-17.02s-3.052-21.072-3.052-27.718c0-6.646-0.324-22.369-0.324-22.369
				s11.995,25.611,14.589,32.581c2.594,6.97,5.187,17.02,5.511,18.155c0.324,1.135,1.135,13.616,4.701,17.831
				c3.566,4.215,5.849,3.834,8.028,3.907c2.388,0.079,5.588-2.124,3.643-7.959c-1.945-5.836-6.808-9.888-7.781-15.723
				c-0.973-5.835-1.459-20.424-1.459-35.337c0-14.913-5.836-29.826-5.836-29.826s4.377-25.287,2.269-44.739
				c-2.107-19.452-9.851-33.893-9.851-33.893l-0.523-2.092l-36.958-3.566L381.206,294.49z"/>
			<g>
				<path style="fill:none;stroke:#263238;stroke-miterlimit:10;" d="M403.773,379.424c-1.377-5.916-3.227-14.536-3.485-19.176
					c-0.417-7.516-0.176-28.229-0.176-28.229"/>
				<path style="fill:none;stroke:#263238;stroke-miterlimit:10;" d="M405.299,385.718c0,0-0.344-1.344-0.852-3.452"/>
				<path style="fill:none;stroke:#263238;stroke-miterlimit:10;" d="M388.657,322.577c2.165,3.171,5.37,7.226,8.291,8.443"/>
				<path style="fill:none;stroke:#263238;stroke-miterlimit:10;" d="M386.093,318.494c0,0,0.434,0.775,1.167,1.944"/>
				<line style="fill:none;stroke:#263238;stroke-miterlimit:10;" x1="402.938" y1="329.005" x2="411.562" y2="317.659"/>
			</g>
			<path style="fill:#FFFFFF;stroke:#263238;stroke-miterlimit:10;" d="M412.686,453.838c-1.07,0.142-2.205,0.265-4.473,0.175
				c-5.624-0.225-11.735-4.492-11.735-4.492c0,0.486-6.646,6.808-8.915,8.105c-2.269,1.297-7.132,1.783-6.97,4.052
				c0.162,2.269,11.023,2.593,14.589,2.431c3.566-0.162,11.671-1.297,12.806-1.297c1.135,0,6.322,0.324,6.16-2.918
				C414.092,458.79,413.643,455.473,412.686,453.838z"/>
			<path style="fill:#FFFFFF;stroke:#263238;stroke-miterlimit:10;" d="M435.971,445.06c-1.015,1.71-2.376,3.871-4.361,4.004
				c-2.434,0.162-4.16-1.777-4.936-2.874c0.532,4.185,1.656,12.002,4.332,15.164c3.566,4.214,5.849,3.834,8.028,3.907
				c2.388,0.079,5.588-2.124,3.643-7.959C441.141,452.696,437.794,449.198,435.971,445.06z"/>
		</g>
		<path style="fill:#FFFFFF;stroke:#263238;stroke-miterlimit:10;" d="M396.96,233.047c0,0,0.573,8.307,0.143,9.739
			c-0.43,1.432-5.443,1.575-6.302,1.289c-0.859-0.286-6.731-1.432-9.596,0c-2.865,1.432-6.588,7.734-7.304,9.023
			c-0.716,1.289-2.864,3.151-2.864,3.151s-5.156-19.908-5.156-21.483c0-1.575,1.003-6.302-2.292-12.46s-5.872-10.169-8.307-12.031
			c-2.435-1.862-4.87-2.005-5.013-0.573c-0.143,1.432,1.003,2.292,1.862,3.294c0.859,1.003,3.008,5.442,3.008,5.442
			s-5.299,8.737-5.442,10.742c-0.143,2.005-0.43,2.435,1.003,4.01c1.432,1.575,6.302,4.01,6.302,4.01s-0.286,6.731,0.716,12.747
			c1.003,6.015-1.575,14.609,2.148,22.056c3.724,7.448,9.023,9.166,9.882,8.45c0.859-0.716,10.169-7.161,10.169-7.161
			s1.146,14.322,1.289,14.895s-0.716,4.726,0,6.302c0.716,1.575,3.151,4.726,16.327,5.442c13.176,0.716,21.77-1.003,22.486-2.148
			c0.716-1.146,0.43-3.151,0.43-4.154c0-1.003,2.148-16.327,2.148-16.327s4.726,11.315,5.299,12.89s1.719,5.872,1.719,5.872
			s-0.43,11.028,1.432,16.041c1.862,5.013,4.01,9.882,4.01,9.882l2.556,16.39c0,0-1.432,2.865-1.146,4.87
			c0.286,2.005,0.816,6.74,0.816,7.456c0,0.716,0,2.865,1.146,3.151c1.146,0.286,2.148-2.721,2.148-2.721s0.716,5.586,0.573,6.445
			c-0.143,0.859,1.338,3.551,2.578,0.716c0.463-1.058,0.859-2.864,1.146-3.437c0.286-0.573,1.719-3.581,2.148-5.729
			c0.43-2.148,0.622-4.46-0.959-9.461c-0.386-1.221-1.575-3.724-1.575-4.153c0-0.43,0.738-19.684-0.121-27.132
			c-0.859-7.448-3.294-14.036-3.294-14.036s-3.437-22.486-3.437-23.345c0-0.859,0.573-11.315-3.151-16.327
			c-3.724-5.013-10.312-6.015-14.322-7.018c-4.01-1.003-8.307-2.578-9.023-3.008c-0.716-0.43-0.859-9.882-0.859-9.882
			L396.96,233.047z"/>
		<path style="fill:#FFFFFF;stroke:#263238;stroke-miterlimit:10;" d="M373.088,278.053c2.978-2.094,6.829-4.76,6.829-4.76
			s1.146,14.322,1.289,14.895c0.143,0.573-0.716,4.726,0,6.302c0.716,1.575,3.151,4.726,16.327,5.442
			c13.176,0.716,21.77-1.003,22.486-2.148c0.716-1.146,0.43-3.151,0.43-4.154c0-1.003,2.148-16.327,2.148-16.327
			s3.819,9.143,5.007,12.134c2.917-0.339,7.562-1.297,12.122-3.968c-0.964-6.393-2.091-13.975-2.091-14.468
			c0-0.859,0.573-11.315-3.151-16.327c-3.724-5.013-10.312-6.015-14.322-7.018c-4.01-1.003-8.307-2.578-9.023-3.008
			c-0.716-0.43-0.859-9.882-0.859-9.882l-13.32-1.719c0,0,0.573,8.307,0.143,9.739c-0.43,1.432-5.442,1.576-6.302,1.289
			c-0.859-0.286-6.731-1.432-9.596,0c-2.865,1.432-6.588,7.734-7.304,9.023c-0.716,1.289-2.864,3.151-2.864,3.151
			s4.297,5.729,4.153,11.887C375.087,272.605,374.003,276.16,373.088,278.053z"/>
		<path style="fill:#FFFFFF;stroke:#263238;stroke-miterlimit:10;" d="M418.764,247.286c-3.559-0.983-6.991-2.258-7.624-2.638
			c-0.716-0.43-0.859-9.882-0.859-9.882l-13.32-1.719c0,0,0.573,8.307,0.143,9.739c-0.388,1.293-4.499,1.534-5.931,1.358
			c0.044,3.178,1.103,10.439,9.654,12.105C408.18,257.681,415.019,251.541,418.764,247.286z"/>
		<polygon style="fill:#263238;stroke:#263238;stroke-miterlimit:10;" points="403.262,238.49 397.59,238.878 396.96,233.047 		"/>
		<path style="fill:none;stroke:#263238;stroke-miterlimit:10;" d="M400.827,256.249c0,0-3.008,11.887-2.578,15.038"/>
		<path style="fill:none;stroke:#263238;stroke-miterlimit:10;" d="M380.669,258.541c0.788-1.826,1.54-3.008,1.54-3.008"/>
		<path style="fill:none;stroke:#263238;stroke-miterlimit:10;" d="M379.917,273.293c0,0-1.289-2.721-1.003-7.877
			c0.101-1.814,0.538-3.575,1.064-5.096"/>
		<line style="fill:none;stroke:#263238;stroke-miterlimit:10;" x1="422.597" y1="277.303" x2="424.269" y2="267.734"/>
		<g>
			<path style="fill:#FFFFFF;stroke:#263238;stroke-miterlimit:10;" d="M402.26,204.832l-9.166,6.302c0,0-0.286,3.724-0.286,7.734
				c0,4.01-1.146,7.448,0.859,11.171s6.302,8.45,9.596,8.45c3.294,0,7.448-1.862,10.026-3.867c2.578-2.005,3.867-5.872,3.867-5.872
				s3.581-1.432,3.294-3.724c-0.286-2.292-0.716-3.867-1.289-4.01c-0.573-0.143-1.862-0.43-1.862-0.43l-1.862-7.734
				C415.436,212.853,404.838,208.413,402.26,204.832z"/>
			<path style="fill:none;stroke:#263238;stroke-miterlimit:10;" d="M403.119,214.428v2.148c0,0-3.151,2.578-1.862,3.581
				c1.289,1.003,2.005,0.43,2.578,0.286"/>
			<path style="fill:none;stroke:#263238;stroke-miterlimit:10;" d="M399.395,225.17c0,0,3.437,3.724,8.593-0.286"/>
			<path style="fill:none;stroke:#263238;stroke-miterlimit:10;" d="M395.958,213.139c0,0,1.862-1.862,5.442-1.003"/>
			<path style="fill:none;stroke:#263238;stroke-miterlimit:10;" d="M405.697,211.993c0,0,3.294-1.432,5.872,1.146"/>
			<path style="fill:#263238;" d="M399.825,215.932c0,0.672-0.385,1.217-0.859,1.217c-0.474,0-0.859-0.545-0.859-1.217
				c0-0.672,0.385-1.217,0.859-1.217C399.44,214.715,399.825,215.26,399.825,215.932z"/>
			<path style="fill:#263238;" d="M409.564,215.932c0,0.672-0.385,1.217-0.859,1.217c-0.475,0-0.859-0.545-0.859-1.217
				c0-0.672,0.385-1.217,0.859-1.217C409.179,214.715,409.564,215.26,409.564,215.932z"/>
			<path style="fill:#FFFFFF;stroke:#263238;stroke-miterlimit:10;" d="M392.664,220.73c0,0-2.865-1.576-3.008,1.289
				c-0.143,2.864,2.435,5.013,2.435,5.013L392.664,220.73z"/>
		</g>
		<path style="fill:#FFFFFF;stroke:#263238;stroke-miterlimit:10;" d="M355.139,218.439c0,0-2.805-0.836-4.02,1.594
			c-1.215,2.43,0.81,4.995,2.295,5.94c1.485,0.945,2.7,0.675,2.835-1.08c0.135-1.755-1.62-4.05-1.62-4.05L355.139,218.439z"/>
		<path style="fill:#FFFFFF;stroke:#263238;stroke-miterlimit:10;" d="M350.58,221.652c0,0-2.565,2.025-2.295,3.645
			c0.27,1.62,3.375,3.78,4.995,3.645c1.62-0.135,1.08-2.295,1.08-2.295S351.255,223.678,350.58,221.652z"/>
		<path style="fill:#FFFFFF;stroke:#263238;stroke-miterlimit:10;" d="M349.095,227.053c0,0-2.025,1.485-0.945,3.375
			c1.08,1.89,3.915,2.43,4.86,1.35c0.945-1.08,0.27-2.835,0.27-2.835S349.23,227.998,349.095,227.053z"/>
		<path style="fill:#FFFFFF;stroke:#263238;stroke-miterlimit:10;" d="M360.975,233.398c0,0-1.215-2.025-1.08-4.59
			c0.135-2.565,2.43-5.805,2.43-5.805s-0.405-0.945-0.675-2.16c-0.27-1.215-1.89-5.67-0.405-7.56c1.485-1.89,2.7,1.215,3.645,4.05
			c0.945,2.835,1.62,4.32,1.62,4.32s1.08,3.24,0.54,5.805c-0.54,2.565-2.025,7.155-2.025,7.155"/>
	</g>
</g>
<g id="Profile_3">
	<g>
		<g>
			<g>
				<line style="fill:#FFFFFF;stroke:#263238;stroke-miterlimit:10;" x1="240.251" y1="365.005" x2="319.67" y2="365.005"/>
				<rect x="230.574" y="361.611" style="fill:#92E3A9;" width="5.322" height="5.322"/>
			</g>
			<g>
				<line style="fill:#FFFFFF;stroke:#263238;stroke-miterlimit:10;" x1="240.251" y1="376.617" x2="319.67" y2="376.617"/>
				<rect x="230.574" y="373.223" style="fill:#92E3A9;" width="5.322" height="5.322"/>
			</g>
			<g>
				<line style="fill:#FFFFFF;stroke:#263238;stroke-miterlimit:10;" x1="240.251" y1="388.229" x2="319.67" y2="388.229"/>
				<rect x="230.574" y="384.835" style="fill:#92E3A9;" width="5.322" height="5.322"/>
			</g>
			<g>
				<line style="fill:#FFFFFF;stroke:#263238;stroke-miterlimit:10;" x1="240.251" y1="399.841" x2="319.67" y2="399.841"/>
				<rect x="230.574" y="396.447" style="fill:#92E3A9;" width="5.322" height="5.322"/>
			</g>
		</g>
		<rect x="169.245" y="300.392" style="fill:none;stroke:#263238;stroke-miterlimit:10;" width="194.997" height="120.951"/>
		<rect x="169.245" y="300.392" style="fill:none;stroke:#263238;stroke-miterlimit:10;" width="194.997" height="9.716"/>
		<line style="fill:none;stroke:#263238;stroke-miterlimit:10;" x1="220.329" y1="310.789" x2="220.329" y2="420.309"/>
		<g>
			<circle style="fill:none;stroke:#263238;stroke-miterlimit:10;" cx="246.431" cy="335.719" r="16.833"/>
			<path style="fill:none;stroke:#263238;stroke-miterlimit:10;" d="M252.397,333.801c0,3.295-2.671,5.966-5.966,5.966
				c-3.295,0-5.966-2.671-5.966-5.966c0-3.295,2.671-5.966,5.966-5.966C249.726,327.835,252.397,330.506,252.397,333.801z"/>
			<path style="fill:none;stroke:#263238;stroke-miterlimit:10;" d="M246.431,352.552c3.805,0,7.304-1.278,10.123-3.407
				c-0.813-4.863-5.029-8.573-10.123-8.573c-5.094,0-9.31,3.71-10.123,8.573C239.127,351.274,242.625,352.552,246.431,352.552z"/>
		</g>
		<g>
			<circle style="fill:none;stroke:#263238;stroke-miterlimit:10;" cx="195.186" cy="334.488" r="8.097"/>
			<path style="fill:none;stroke:#263238;stroke-miterlimit:10;" d="M198.056,333.566c0,1.585-1.285,2.87-2.87,2.87
				s-2.87-1.285-2.87-2.87s1.285-2.87,2.87-2.87S198.056,331.981,198.056,333.566z"/>
			<path style="fill:none;stroke:#263238;stroke-miterlimit:10;" d="M195.186,342.585c1.83,0,3.513-0.615,4.869-1.639
				c-0.391-2.339-2.419-4.124-4.869-4.124c-2.45,0-4.478,1.785-4.869,4.124C191.673,341.971,193.356,342.585,195.186,342.585z"/>
		</g>
		<g>
			<circle style="fill:none;stroke:#263238;stroke-miterlimit:10;" cx="195.186" cy="368.389" r="8.097"/>
			<path style="fill:none;stroke:#263238;stroke-miterlimit:10;" d="M198.056,367.467c0,1.585-1.285,2.87-2.87,2.87
				s-2.87-1.285-2.87-2.87s1.285-2.87,2.87-2.87S198.056,365.882,198.056,367.467z"/>
			<path style="fill:none;stroke:#263238;stroke-miterlimit:10;" d="M195.186,376.486c1.83,0,3.513-0.615,4.869-1.639
				c-0.391-2.339-2.419-4.124-4.869-4.124c-2.45,0-4.478,1.785-4.869,4.124C191.673,375.872,193.356,376.486,195.186,376.486z"/>
		</g>
		<g>
			<circle style="fill:none;stroke:#263238;stroke-miterlimit:10;" cx="195.186" cy="402.29" r="8.097"/>
			<path style="fill:none;stroke:#263238;stroke-miterlimit:10;" d="M198.056,401.368c0,1.585-1.285,2.87-2.87,2.87
				s-2.87-1.285-2.87-2.87c0-1.585,1.285-2.87,2.87-2.87S198.056,399.783,198.056,401.368z"/>
			<path style="fill:none;stroke:#263238;stroke-miterlimit:10;" d="M195.186,410.387c1.83,0,3.513-0.615,4.869-1.639
				c-0.391-2.339-2.419-4.124-4.869-4.124c-2.45,0-4.478,1.785-4.869,4.124C191.673,409.773,193.356,410.387,195.186,410.387z"/>
		</g>
		<line style="fill:none;stroke:#263238;stroke-miterlimit:10;" x1="272.319" y1="326.131" x2="314.934" y2="326.131"/>
		<line style="fill:none;stroke:#263238;stroke-miterlimit:10;" x1="272.319" y1="335.932" x2="314.934" y2="335.932"/>
		<line style="fill:none;stroke:#263238;stroke-miterlimit:10;" x1="272.319" y1="345.733" x2="314.934" y2="345.733"/>
	</g>
</g>
<g id="Profile_2">
	<g>
		<rect x="233.468" y="68.808" style="fill:none;stroke:#263238;stroke-miterlimit:10;" width="134.009" height="197.548"/>
		<circle style="fill:#FFFFFF;stroke:#263238;stroke-miterlimit:10;" cx="297.079" cy="130.843" r="42.918"/>
		<line style="fill:#FFFFFF;stroke:#263238;stroke-miterlimit:10;" x1="252.628" y1="187.599" x2="343.063" y2="187.599"/>
		<line style="fill:#FFFFFF;stroke:#263238;stroke-miterlimit:10;" x1="252.628" y1="196.796" x2="343.063" y2="196.796"/>
		<g>
			<g>
				<line style="fill:#FFFFFF;stroke:#263238;stroke-miterlimit:10;" x1="263.644" y1="212.279" x2="343.063" y2="212.279"/>
				<rect x="253.967" y="208.884" style="fill:#92E3A9;" width="5.322" height="5.322"/>
			</g>
			<g>
				<line style="fill:#FFFFFF;stroke:#263238;stroke-miterlimit:10;" x1="263.644" y1="223.891" x2="343.063" y2="223.891"/>
				<rect x="253.967" y="220.496" style="fill:#92E3A9;" width="5.322" height="5.322"/>
			</g>
			<g>
				<line style="fill:#FFFFFF;stroke:#263238;stroke-miterlimit:10;" x1="263.644" y1="235.503" x2="343.063" y2="235.503"/>
				<rect x="253.967" y="232.108" style="fill:#92E3A9;" width="5.322" height="5.322"/>
			</g>
			<g>
				<line style="fill:#FFFFFF;stroke:#263238;stroke-miterlimit:10;" x1="263.644" y1="247.115" x2="343.063" y2="247.115"/>
				<rect x="253.967" y="243.72" style="fill:#92E3A9;" width="5.322" height="5.322"/>
			</g>
		</g>
		<g>
			<path style="fill:#263238;stroke:#263238;stroke-linecap:round;stroke-linejoin:round;stroke-miterlimit:10;" d="M287.59,102.369
				c0,0,5.609-9.616,18.031-9.216c12.421,0.401,15.426,14.024,15.026,18.031c-0.401,4.007-1.803,6.611-1.803,6.611l-5.409-4.608
				c0,0,5.452,5.047,8.457,13.061c3.005,8.014,1.56,18.393-2.247,20.797c-3.806,2.404-6.411,1.402-6.411,1.402l0.401-5.409
				c0,0-3.606,6.411-9.616,7.613c-6.01,1.202-23.24,2.003-25.844-1.002s-3.205-6.411-3.205-6.411l-0.401,5.209
				c0,0-5.409-4.007-5.609-8.615c-0.2-4.608,2.604-11.019,4.007-14.425c1.402-3.406,2.404-5.209,2.805-10.418
				c0.401-5.209-0.2-8.014,3.406-11.42C282.782,100.165,287.59,102.369,287.59,102.369z"/>
			<g>
				<path style="fill:#FFFFFF;stroke:#263238;stroke-linecap:round;stroke-linejoin:round;stroke-miterlimit:10;" d="M279.225,157
					c-3.326,1.426-8.7,2.695-12.346,4.331c7.755,7.682,18.422,12.43,30.2,12.43c11.707,0,22.315-4.693,30.058-12.294
					c-0.937-0.492-2.3-1.033-4.388-1.613c-6.422-1.784-15.535-6.996-16.605-8.78c-1.07-1.784-2.125-8.036-2.125-8.036l-14.825-2.003
					c0,0,0.734,7.76,0.734,9.187S284.22,154.86,279.225,157z"/>
				<path style="fill:#FFFFFF;stroke:#263238;stroke-linecap:round;stroke-linejoin:round;stroke-miterlimit:10;" d="
					M285.387,123.806c0,0,1.202-9.015,4.007-13.824c2.805-4.808,8.815-3.406,11.219-1.803c2.404,1.603,6.21,10.217,8.414,15.827
					c2.204,5.609,3.206,8.815,3.206,8.815s-3.491,7.292-8.214,10.217c-5.041,3.121-10.517,2.997-14.825-2.004
					c-2.411-2.799-3.606-5.81-3.606-5.81s-5.009-1.603-6.211-5.81c-1.202-4.207-0.2-6.411,1.803-7.012
					C283.183,121.802,285.387,123.806,285.387,123.806z"/>
				<path style="fill:none;stroke:#263238;stroke-linecap:round;stroke-linejoin:round;stroke-miterlimit:10;" d="M301.013,120.8
					c0,0-0.2,3.005,1.402,5.209c1.603,2.204,0.2,4.608-2.604,4.007"/>
				<path style="fill:none;stroke:#263238;stroke-linecap:round;stroke-linejoin:round;stroke-miterlimit:10;" d="M302.416,133.622
					c0,0-6.812,3.206-10.017-3.205"/>
				<path style="fill:#263238;" d="M293.601,124.006c0,0.885,0.359,1.603,0.801,1.603s0.801-0.718,0.801-1.603
					c0-0.885-0.359-1.603-0.801-1.603S293.601,123.121,293.601,124.006z"/>
				<path style="fill:#263238;" d="M303.417,124.006c0,0.885,0.359,1.603,0.801,1.603c0.443,0,0.801-0.718,0.801-1.603
					c0-0.885-0.359-1.603-0.801-1.603C303.776,122.403,303.417,123.121,303.417,124.006z"/>
				<path style="fill:none;stroke:#263238;stroke-linecap:round;stroke-linejoin:round;stroke-miterlimit:10;" d="M296.005,116.994
					c0,0-2.204-1.603-4.608,0.601"/>
				<path style="fill:none;stroke:#263238;stroke-linecap:round;stroke-linejoin:round;stroke-miterlimit:10;" d="M301.815,117.395
					c0,0,1.603-1.803,3.806-0.801"/>
			</g>
			<path style="fill:#92E3A9;stroke:#263238;stroke-miterlimit:10;" d="M313.258,155.898l-15.539,14.728l-15.062-15.216
				c-1.132,0.562-2.299,1.104-3.432,1.59c-3.326,1.426-8.7,2.695-12.346,4.331c7.755,7.682,18.422,12.43,30.2,12.43
				c11.707,0,22.315-4.693,30.058-12.294c-0.937-0.492-2.3-1.033-4.388-1.613C319.804,159.036,316.3,157.497,313.258,155.898z"/>
		</g>
	</g>
</g>
<g id="Profile_1">
	<g>
		<g>
			<rect x="79.125" y="68.808" style="fill:none;stroke:#263238;stroke-miterlimit:10;" width="134.009" height="197.548"/>
			<line style="fill:#FFFFFF;stroke:#263238;stroke-miterlimit:10;" x1="98.285" y1="187.599" x2="188.719" y2="187.599"/>
			<line style="fill:#FFFFFF;stroke:#263238;stroke-miterlimit:10;" x1="98.285" y1="196.796" x2="188.719" y2="196.796"/>
			<g>
				<line style="fill:#FFFFFF;stroke:#263238;stroke-miterlimit:10;" x1="109.301" y1="212.279" x2="188.719" y2="212.279"/>
				<rect x="99.624" y="208.884" style="fill:#92E3A9;" width="5.322" height="5.322"/>
			</g>
			<g>
				<line style="fill:#FFFFFF;stroke:#263238;stroke-miterlimit:10;" x1="109.301" y1="223.891" x2="188.719" y2="223.891"/>
				<rect x="99.624" y="220.496" style="fill:#92E3A9;" width="5.322" height="5.322"/>
			</g>
			<g>
				<line style="fill:#FFFFFF;stroke:#263238;stroke-miterlimit:10;" x1="109.301" y1="235.503" x2="188.719" y2="235.503"/>
				<rect x="99.624" y="232.108" style="fill:#92E3A9;" width="5.322" height="5.322"/>
			</g>
			<g>
				<line style="fill:#FFFFFF;stroke:#263238;stroke-miterlimit:10;" x1="109.301" y1="247.115" x2="188.719" y2="247.115"/>
				<rect x="99.624" y="243.72" style="fill:#92E3A9;" width="5.322" height="5.322"/>
			</g>
		</g>
		<g>
			<circle style="fill:#FFFFFF;stroke:#263238;stroke-miterlimit:10;" cx="142.736" cy="130.843" r="42.918"/>
			<path style="fill:#263238;stroke:#263238;stroke-linecap:round;stroke-linejoin:round;stroke-miterlimit:10;" d="
				M120.397,149.679l-10.698,8.558c7.872,9.483,19.748,15.524,33.036,15.524c12.987,0,24.617-5.777,32.488-14.891l-16.267-10.609
				L120.397,149.679z"/>
			<g>
				<g>
					<path style="fill:#92E3A9;stroke:#263238;stroke-linecap:round;stroke-linejoin:round;stroke-miterlimit:10;" d="
						M133.833,137.556c0,0-9.437,1.223-12.059,5.068c-2.621,3.845-4.544,7.515-2.621,9.787c1.922,2.272,7.34,7.165,10.486,9.263
						s8.054,9.27,8.054,9.27s0.685-5.25,0.685-9.095c0-3.845-3.32-8.039-4.02-11.535c-0.699-3.495,5.068-9.088,9.088-7.34
						c4.02,1.748,7.165,6.991,6.991,9.437c-0.175,2.447,0.699,5.418,1.573,9.612c0.874,4.194,1.573,7.786,1.573,7.786
						s5.942-6.039,7.864-12.505c1.922-6.466,1.049-13.107-6.117-17.477C148.164,135.459,133.833,137.556,133.833,137.556z"/>
					<path style="fill:#FFFFFF;stroke:#263238;stroke-linecap:round;stroke-linejoin:round;stroke-miterlimit:10;" d="
						M158.418,142.224c-0.867-0.854-1.882-1.659-3.089-2.396c-7.165-4.369-21.496-2.272-21.496-2.272s-9.437,1.223-12.059,5.068
						c-0.305,0.448-0.6,0.893-0.881,1.334c-0.313,1.885-0.022,4.153,1.58,6.705c3.916,6.237,12.041,9.222,15.892,10.957
						c-0.126-3.782-3.323-7.88-4.008-11.306c-0.699-3.495,5.068-9.088,9.088-7.34c4.02,1.748,7.165,6.991,6.991,9.437
						c-0.175,2.447,0.699,5.418,1.573,9.612c0.051,0.243,0.1,0.495,0.15,0.755c0.298-0.286,0.597-0.593,0.899-0.929
						c4.544-5.068,5.942-10.661,5.942-15.554C158.999,144.85,158.782,143.484,158.418,142.224z"/>
				</g>
				<g>
					<path style="fill:#FFFFFF;stroke:#263238;stroke-linecap:round;stroke-linejoin:round;stroke-miterlimit:10;" d="
						M132.26,130.74c0,0,1.049,12.583,1.398,16.078s2.272,12.408,8.214,14.156c5.942,1.748,9.437-5.068,8.563-10.136
						c-0.874-5.068-2.447-9.787-2.447-11.535c0-1.748-0.175-2.272-0.175-2.272L132.26,130.74z"/>
					<path style="fill:#263238;stroke:#263238;stroke-linecap:round;stroke-linejoin:round;stroke-miterlimit:10;" d="
						M147.814,137.032l-15.554-6.292c0,0,0.798,9.573,1.234,14.339l14.491-6.113C147.963,137.498,147.814,137.032,147.814,137.032z"
						/>
				</g>
				<g>
					<g>
						<path style="fill:#FFFFFF;stroke:#263238;stroke-linecap:round;stroke-linejoin:round;stroke-miterlimit:10;" d="
							M151.497,107.182c0,0,2.793,15.362,2.793,18.155c0,2.793-2.56,10.939-3.724,12.801c-1.164,1.862-6.983,3.026-9.31,2.095
							c-2.328-0.931-8.845-6.983-10.241-9.543c-1.396-2.56-1.862-4.888-1.862-4.888s-3.259,1.396-5.819-2.328
							c-2.56-3.724-1.164-7.215,1.396-7.448l2.328,0.698c0,0-4.19-7.215-2.793-10.474c1.397-3.259,18.155-4.422,21.646-4.422
							C149.402,101.828,151.497,107.182,151.497,107.182z"/>
						<path style="fill:#263238;stroke:#263238;stroke-linecap:round;stroke-linejoin:round;stroke-miterlimit:10;" d="
							M138.771,110.963l-3.712,1.645c-0.543,0.241-0.763,0.894-0.476,1.414l0.137,0.248c0.267,0.483,0.871,0.664,1.359,0.405
							l3.575-1.893c0.503-0.266,0.687-0.894,0.409-1.39l0,0C139.808,110.938,139.248,110.752,138.771,110.963z"/>
						<path style="fill:#263238;stroke:#263238;stroke-linecap:round;stroke-linejoin:round;stroke-miterlimit:10;" d="
							M145.669,110.153l-0.018,0.065c-0.123,0.451,0.155,0.914,0.611,1.017l2.863,0.646c0.513,0.116,1.002-0.275,1.002-0.801l0,0
							c0-0.377-0.256-0.705-0.622-0.797l-2.845-0.711C146.227,109.464,145.786,109.722,145.669,110.153z"/>
						<path style="fill:#808080;stroke:#545454;stroke-linecap:round;stroke-linejoin:round;stroke-miterlimit:10;" d="
							M153.312,130.46c0,0-0.455-5.309-1.517-6.067c-1.062-0.758-8.949-0.152-8.949-0.152s-8.039-2.275-8.19-0.455
							c-0.111,1.335,0.244,8.439,0.579,11.763c2.248,2.152,4.753,4.176,6.02,4.683c2.327,0.931,8.146-0.233,9.31-2.095
							c0.7-1.12,1.902-4.51,2.752-7.645C153.315,130.477,153.312,130.46,153.312,130.46z M151.492,131.37
							c-0.91,3.033-2.882,4.854-3.792,4.399c-0.91-0.455-1.668-3.337-2.427-3.64c-0.758-0.303-1.365,1.213-2.275,2.578
							c-0.91,1.365-3.337,1.82-4.399,0.91c-1.062-0.91-2.275-9.252-2.275-10.314c0-1.062,11.072,0.607,11.072,0.607
							s2.73-0.303,3.489-0.152C151.644,125.91,152.402,128.337,151.492,131.37z"/>
						<path style="fill:none;stroke:#263238;stroke-linecap:round;stroke-linejoin:round;stroke-miterlimit:10;" d="
							M138.145,126.062c0,0,4.399,3.034,9.1,1.972"/>
						<path style="fill:#FFFFFF;stroke:#263238;stroke-linecap:round;stroke-linejoin:round;stroke-miterlimit:10;" d="
							M144.818,113.321c0,0,2.123,9.252,2.275,10.011c0.152,0.758-1.517,3.185-3.337,1.82c-1.82-1.365-2.123-2.73-2.123-2.73"/>
						<path style="fill:#263238;" d="M140.087,117.823c0.245,0.801,0.151,1.54-0.209,1.65c-0.36,0.11-0.851-0.45-1.096-1.251
							c-0.245-0.801-0.151-1.54,0.209-1.65C139.351,116.462,139.842,117.022,140.087,117.823z"/>
						<path style="fill:#263238;" d="M149.061,116.579c0.096,0.832-0.129,1.542-0.503,1.585c-0.374,0.043-0.756-0.596-0.853-1.428
							c-0.096-0.832,0.129-1.542,0.503-1.585C148.583,115.108,148.964,115.747,149.061,116.579z"/>
					</g>
					<path style="fill:#263238;stroke:#263238;stroke-linecap:round;stroke-linejoin:round;stroke-miterlimit:10;" d="
						M123.333,97.173c0,0-6.052,6.052-3.724,11.172c2.328,5.121,8.146,14.664,8.146,14.664h1.164l-0.233-3.957
						c0,0,3.724-1.397,3.026-4.655c-0.698-3.258-2.328-5.353-2.328-5.353s3.957,3.026,8.612,2.328
						c4.655-0.698,6.75-6.284,8.379-4.422c1.629,1.862,4.19,3.026,9.077,0.466c4.888-2.56,8.006-11.232,2.652-14.723
						c-5.353-3.491-10.333-0.406-13.126,0.292c-2.793,0.698-4.888-3.957-11.172-2.095C127.523,92.751,123.333,97.173,123.333,97.173
						z"/>
				</g>
			</g>
		</g>
	</g>
</g>
<g id="Character_1">
	<g>
		<g>
			
				<ellipse transform="matrix(0.9872 -0.1595 0.1595 0.9872 -32.9188 31.871)" style="fill:none;stroke:#263238;stroke-width:2;stroke-miterlimit:10;" cx="182.134" cy="221.058" rx="14.599" ry="14.599"/>
			
				<line style="fill:none;stroke:#263238;stroke-width:3;stroke-miterlimit:10;" x1="190.309" y1="233.905" x2="206.076" y2="254.927"/>
		</g>
		<g>
			<path style="fill:#FFFFFF;stroke:#263238;stroke-miterlimit:10;" d="M164.768,210.113c0,0,0.982,2.945,0.818,5.891
				c-0.164,2.945,0.164,7.199,0.982,7.854c0.818,0.655,3.109,2.291,2.454,3.6c-0.654,1.309-2.127,1.964-2.127,1.964
				s-0.818,4.254-2.454,7.363c-1.636,3.109-2.782,5.236-4.745,5.4s-3.109-0.327-3.109-0.327l-2.127,2.127l-16.199-3.436l0.491-7.2
				c0,0-4.909-8.345-4.909-16.854c0-8.509,8.672-13.417,13.745-13.745C152.66,202.423,162.15,204.55,164.768,210.113z"/>
			<path style="fill:#263238;stroke:#263238;stroke-miterlimit:10;" d="M169.022,206.023c0,0,0.327,2.127-1.309,4.581
				c-1.636,2.454-6.054,3.272-6.054,3.272s-0.164,3.6-1.145,5.073c-0.982,1.473-3.273,2.618-3.273,2.618s-3.272,0.327-2.291,3.927
				c0.982,3.6,1.8,4.091,0.164,7.036c-1.636,2.945-11.29,6.872-14.563,4.582c-3.273-2.291-5.727-3.436-7.69-10.308
				c-1.964-6.872-3.927-16.526,1.636-23.071c5.563-6.545,18.163-4.909,18.163-4.909s-3.272-3.109,1.309-2.945
				c4.581,0.164,7.69,3.436,7.69,3.436s0.491-3.272,2.945-2.454C167.059,197.678,168.695,204.223,169.022,206.023z"/>
			<path style="fill:#FFFFFF;stroke:#263238;stroke-miterlimit:10;" d="M158.55,224.022c0,0-2.782-5.236-4.909-3.273
				c-2.127,1.964,0,12.436,3.6,10.472"/>
			<line style="fill:none;stroke:#263238;stroke-miterlimit:10;" x1="157.241" y1="221.567" x2="170.495" y2="221.567"/>
			<path style="fill:none;stroke:#263238;stroke-miterlimit:10;" d="M165.026,218.295c0.807-0.342,1.744-0.436,2.717-0.189
				c1.465,0.372,2.634,1.582,2.969,3.056c0.399,1.758-0.313,3.389-1.571,4.326"/>
		</g>
		<path style="fill:#FFFFFF;stroke:#263238;stroke-miterlimit:10;" d="M158.155,248.765c0,0,0-3.657-4.799-6.399
			c-4.8-2.743-14.399-6.399-18.741-5.942c-4.343,0.457-6.857,6.628-6.857,6.628s17.141,1.6,21.255,2.514
			C153.127,246.479,158.155,248.765,158.155,248.765z"/>
		<g>
			<path style="fill:#FFFFFF;stroke:#263238;stroke-miterlimit:10;" d="M86.391,272.534c0,0-5.485,6.399-12.799,15.541
				c-7.314,9.142-13.256,18.513-13.256,18.513s-6.856,5.942-7.771,8.456c-0.914,2.514-3.2,9.828-4.114,11.885
				c-0.914,2.057,3.2-0.686,3.885-2.286c0.686-1.6,1.371-2.743,1.371-2.743l5.942-2.743c0,0-1.828,4.571,0,5.257
				c1.828,0.686,2.057-2.514,4.114-5.028c2.057-2.514,3.885-4.342,4.114-7.314c0.229-2.971,0-6.171,0-6.171l29.254-18.97
				L86.391,272.534z"/>
			<path style="fill:none;stroke:#263238;stroke-miterlimit:10;" d="M53.708,321.901l2.707-4.071c0,0,1.893-0.505,3.659-1.64
				c1.767-1.136,2.65-2.397,2.65-2.397"/>
		</g>
		<path style="fill:#FFFFFF;stroke:#263238;stroke-miterlimit:10;" d="M185.719,263.569l7.407-15.58c0,0,1.277-6.002,1.788-6.896
			c0.511-0.894,3.576-5.747,4.725-5.874c1.149-0.128,2.299,0.383,2.426,1.405c0.128,1.022-0.383,1.788-0.383,1.788
			s1.66,0.766,2.937,2.426c1.277,1.66,1.277,2.937,1.533,3.959c0.255,1.022,1.149,1.149,0.128,3.32
			c-1.022,2.171-2.682,2.809-3.576,3.448s-3.065,1.66-3.065,1.66s-0.128,14.686-1.916,20.432c-1.788,5.747-3.065,7.662-3.065,7.662
			s-3.065-10.472-4.853-12.515C188.018,266.761,185.719,263.569,185.719,263.569z"/>
		<path style="fill:#263238;stroke:#263238;stroke-miterlimit:10;" d="M96.447,306.131c0,0-9.743,25.135-11.415,30.987
			c-1.672,5.852-5.624,17.748-7.302,32.851c-0.985,8.868,0.085,18.457,0.085,18.457s-3.344,6.41-6.967,16.164
			c-3.623,9.754-15.914,58.112-15.914,58.112s2.229,3.344,7.246,2.508c5.016-0.836,5.016-0.836,5.016-0.836s1.672,0.279,3.623-0.279
			c1.951-0.557,6.41-0.279,6.688-2.229c0.279-1.951-1.115-2.508-2.787-4.459c-1.672-1.951-4.18-8.082-4.18-8.082
			s13.934-24.422,18.95-33.339c5.016-8.918,12.013-25.609,12.291-28.117c0.279-2.508,14.199-39.36,14.199-39.36h3.065l22,36.822
			c0,0-0.836,14.77,1.672,23.409c2.508,8.639,8.361,41.245,8.361,41.245l-0.557,5.852c0,0,1.115,2.787,1.115,3.623
			c0,0.836,0,3.065,0,3.065s0.836,1.951,6.41,1.951c2.508,0,10.869-0.836,12.262-1.115c1.393-0.279,11.983-0.557,12.262-1.951
			c0.279-1.393,0.557-2.508-1.115-3.066c-1.672-0.557-13.655-6.131-13.655-6.131v-5.016c0,0-2.23-1.672-2.787-3.344
			c-0.557-1.672,0.557-46.54,0-54.343c-0.557-7.803,0.279-7.803-1.951-14.77c-2.229-6.967-11.078-55.81-11.078-55.81l-4.512-7.765
			l-47.376-9.754L96.447,306.131z"/>
		<g>
			<path style="fill:#FFFFFF;stroke:#263238;stroke-miterlimit:10;" d="M183.067,264.078c0,0,0.914-2.971,4.799-1.6
				s9.828,12.57,8.456,18.513s-5.028,7.999-8.228,7.771c-3.2-0.229-7.085-4.114-6.171-4.571
				C182.839,283.733,183.067,264.078,183.067,264.078z"/>
			<path style="fill:#FFFFFF;stroke:#263238;stroke-miterlimit:10;" d="M98.504,261.335c0,0-1.6,0-3.885-0.229
				c-2.285-0.228-5.485,3.657-7.314,5.942c-1.828,2.285-4.114,3.657-2.514,8.456c1.6,4.799,5.942,10.97,12.342,11.427
				s10.056-2.971,10.056-2.971L98.504,261.335z"/>
			<path style="fill:#92E3A9;stroke:#263238;stroke-miterlimit:10;" d="M127.758,243.051c0,0-3.657-0.457-11.427,3.885
				c-7.771,4.342-24.455,17.827-25.598,20.112c-1.143,2.285,2.057,12.57,6.171,14.399s7.771,0.457,7.771,0.457l-8.228,24.226
				c0,0,9.142-0.457,24.455,2.285c15.313,2.743,31.083,10.513,31.083,10.513s1.143-0.229,1.371-3.2
				c0.229-2.971,1.143-4.799,1.828-6.171c0.686-1.371,9.37-30.854,9.37-30.854s17.141,7.542,21.712,7.542
				c4.571,0,6.171-8.228,4.342-14.399c-1.828-6.171-5.714-7.999-5.714-7.999s-5.257-1.6-9.599-5.257
				c-4.342-3.657-17.141-9.828-17.141-9.828S139.871,240.994,127.758,243.051z"/>
			<polyline style="fill:none;stroke:#263238;stroke-miterlimit:10;" points="157.927,273.905 164.555,278.705 155.87,276.648 			
				"/>
			<line style="fill:none;stroke:#263238;stroke-miterlimit:10;" x1="112.4" y1="257.737" x2="113.588" y2="254.021"/>
			<line style="fill:none;stroke:#263238;stroke-miterlimit:10;" x1="104.675" y1="281.904" x2="111.255" y2="261.32"/>
		</g>
	</g>
</g>
</svg>
